<?xml version="1.0" standalone="no"?><!DOCTYPE svg PUBLIC "-//W3C//DTD SVG 1.1//EN" "http://www.w3.org/Graphics/SVG/1.1/DTD/svg11.dtd"><svg t="1691003095322" class="icon" viewBox="0 0 1024 1024" version="1.1" xmlns="http://www.w3.org/2000/svg" p-id="3494" xmlns:xlink="http://www.w3.org/1999/xlink" width="200" height="200"><path d="M431.26119769 143.51930644h162.51939532v63.5492503H431.26119769z" fill="#044cf4" p-id="3495"></path><path d="M902.67162318 850.37449637V244.05213706a112.51342747 112.51342747 0 0 0-121.36865049-100.53283062h-81.2596981v63.5492503h92.19850338a37.50447612 37.50447612 0 0 1 40.62984904 33.33731161V850.37449637a37.50447612 37.50447612 0 0 1-40.62984904 33.85820739H232.27911781a37.50447612 37.50447612 0 0 1-40.62984904-33.33731162V240.92676413a37.50447612 37.50447612 0 0 1 40.62984904-33.33731162h91.6776076V143.51930644H243.21792309A112.51342747 112.51342747 0 0 0 121.32837682 244.05213706v609.96862803A112.51342747 112.51342747 0 0 0 242.69702731 954.55359657h538.0850496A112.51342747 112.51342747 0 0 0 902.67162318 850.37449637z" fill="#044cf4" p-id="3496"></path><path d="M604.98052131 433.61521816a32.4980466 32.4980466 0 0 1 12.18676793-21.66536465h18.05447019a40.17119606 40.17119606 0 0 1 10.38131993 0h18.05447017l73.12060466 66.35017843a32.04668459 32.04668459 0 0 1 10.83268194 23.47081114H290.8327403a20.31127865 20.31127865 0 1 1-1e-8-40.17119607h315.95322827v-27.98442885zM413.15177574 674.64239527h-18.05447018a40.17119606 40.17119606 0 0 1-10.38132071 0h-18.05447017l-77.18285962-67.25290168a32.04668459 32.04668459 0 0 1-10.8326827-23.47081115h460.38899031a20.31127865 20.31127865 0 1 1 0 40.17119606h-315.95322825v29.33851412a32.4980466 32.4980466 0 0 1-9.92995869 21.21400265z" fill="#d81e06" p-id="3497"></path><path d="M412.50896007 69.03125m0 31.77462514l0 120.32685982q0 31.77462514-31.77462515 31.77462601l-6.25074674 0q-31.77462514 0-31.77462514-31.77462601l0-120.32685981q0-31.77462514 31.77462514-31.77462515l6.25074674 0q31.77462514 0 31.77462515 31.77462515Z" fill="#ffd700" p-id="3498"></path><path d="M682.33282766 70.07304069m0 31.77462602l0 120.3268598q0 31.77462514-31.77462515 31.77462514l-6.25074587 0q-31.77462514 0-31.77462514-31.77462514l0-120.3268598q0-31.77462514 31.77462514-31.77462602l6.25074587 0q31.77462514 0 31.77462515 31.77462602Z" fill="#ffd700" p-id="3499"></path></svg>