<?xml version="1.0" standalone="no"?><!DOCTYPE svg PUBLIC "-//W3C//DTD SVG 1.1//EN" "http://www.w3.org/Graphics/SVG/1.1/DTD/svg11.dtd"><svg t="1690887015541" class="icon" viewBox="0 0 1024 1024" version="1.1" xmlns="http://www.w3.org/2000/svg" p-id="3307" xmlns:xlink="http://www.w3.org/1999/xlink" width="200" height="200"><path d="M535.57333333 187.0208c41.70666667-41.70666667 96.32-62.50666667 150.93333334-62.50666667 41.81333333 0 83.62666667 12.16 119.57333333 36.58666667l81.17333333-81.17333333c1.70666667-1.6 3.84-2.45333333 6.08-2.45333334s4.37333333 0.74666667 6.08 2.45333334l45.22666667 45.22666666c3.30666667 3.30666667 3.30666667 8.74666667 0 12.16l-81.17333333 81.17333334c56.21333333 82.98666667 47.57333333 196.8-25.92 270.4l-108.69333334 108.69333333c-1.70666667 1.6-3.94666667 2.45333333-6.08 2.45333333-2.24 0-4.37333333-0.74666667-6.08-2.45333333l-289.81333333-289.81333333c-3.30666667-3.30666667-3.30666667-8.74666667 0-12.05333334z m-240.64 240.53333333c1.70666667-1.6 3.94666667-2.45333333 6.08-2.45333333 1.23306667 0 2.43413333 0.22613333 3.5488 0.71466667l-0.03306666 0.03626666 294.42133333 294.42133334c1.136 3.03786667 0.49066667 6.61333333-1.93706667 9.04106666l-108.69333333 108.69333334c-41.70666667 41.70666667-96.32 62.50666667-150.93333333 62.50666666-41.81333333 0-83.62666667-12.16-119.57333334-36.58666666l-81.17333333 81.17333333c-1.70666667 1.6-3.84 2.45333333-6.08 2.45333333s-4.37333333-0.74666667-6.08-2.45333333l-45.22666667-45.22666667c-3.30666667-3.30666667-3.30666667-8.74666667 0-12.05333333l81.17333334-81.17333333c-56.21333333-82.98666667-47.57333333-196.8 25.92-270.4z m291.94666667-189.22666666l-63.36 63.36 199.25333333 199.25333333 63.36-63.36c26.56-26.66666667 41.28-61.97333333 41.28-99.62666667 0-37.65333333-14.72-73.06666667-41.28-99.62666666-26.66666667-26.66666667-61.97333333-41.28-99.62666666-41.28-37.65333333 0-73.06666667 14.72-99.62666667 41.28z m-285.86666667 285.86666666l-63.36 63.36c-26.66666667 26.66666667-41.28 61.97333333-41.28 99.62666667 0 37.65333333 14.72 73.06666667 41.28 99.62666667 26.66666667 26.66666667 61.97333333 41.28 99.62666667 41.28 37.65333333 0 73.06666667-14.72 99.62666667-41.28l63.36-63.36-199.25333334-199.25333334z" fill="#044cf4" p-id="3308"></path><path d="M571.53173333 551.056a8.53333333 8.53333333 0 0 1 12.06826667 0l36.20373333 36.20373333a8.53333333 8.53333333 0 0 1 0 12.06826667l-70.8992 70.8992-48.272-48.272 70.8992-70.8992zM423.70133333 403.22346667a8.53333333 8.53333333 0 0 1 12.0672 0l36.20373334 36.2048a8.53333333 8.53333333 0 0 1 0 12.0672l-70.8992 70.8992-48.272-48.272 70.90026666-70.8992z" fill="#1afa29" p-id="3309"></path></svg>