<?xml version="1.0" standalone="no"?><!DOCTYPE svg PUBLIC "-//W3C//DTD SVG 1.1//EN" "http://www.w3.org/Graphics/SVG/1.1/DTD/svg11.dtd"><svg t="1690886816479" class="icon" viewBox="0 0 1024 1024" version="1.1" xmlns="http://www.w3.org/2000/svg" p-id="3002" xmlns:xlink="http://www.w3.org/1999/xlink" width="200" height="200"><path d="M816.65 474.65c-14.85-2.7-24.75-14.85-24.75-30.15 0-109.8-69.75-211.95-174.6-244.35-144.45-45-281.7 37.35-324.45 162-2.7 9.9-12.6 17.55-22.5 19.8-117.45 22.5-207 127.35-207 252v2.7c0 112.05 94.95 199.35 204.75 199.35h511.2c99.9-2.7 179.55-82.35 179.55-182.25 2.25-86.85-59.85-159.3-142.2-179.1z m-149.85 102.15l-117.45 117.45c-12.6 12.6-30.15 14.85-45 9.9h-2.7c-4.95-2.7-9.9-4.95-14.85-9.9l-117.45-117.45c-14.85-14.85-14.85-42.3 0-57.15 14.85-14.85 42.3-14.85 57.15 0l49.95 49.95V437.3c0-22.5 17.55-40.05 40.05-40.05s40.05 17.55 40.05 40.05v132.3l49.95-49.95c17.55-17.55 42.3-17.55 59.85 0 18 14.85 18 39.6 0.45 57.15z" fill="#044cf4" p-id="3003"></path></svg>