<?xml version="1.0" standalone="no"?><!DOCTYPE svg PUBLIC "-//W3C//DTD SVG 1.1//EN" "http://www.w3.org/Graphics/SVG/1.1/DTD/svg11.dtd"><svg t="1676977187436" class="icon" viewBox="0 0 1024 1024" version="1.1" xmlns="http://www.w3.org/2000/svg" p-id="2248" xmlns:xlink="http://www.w3.org/1999/xlink" width="200" height="200"><path d="M540.94145809 695.93458321l-12.56382246 12.56382246c-13.88427642 13.88427642-36.37560833 13.88427642-50.25758788 0l-37.25973796-37.25170058L440.86030979 872.79146116l-106.61681764 0-0.98287617-129.73852333-106.78445695 0 1.13444186 129.73852333-106.62485501 0L120.98574475 671.80129657l-36.68677597 36.69711023c-13.88427642 13.88427642-36.39283208 13.88427642-50.26677425 0l-12.56497146-12.56382248c-13.87509004-13.88427642-13.87509004-36.38479471 0-50.25873686l226.18900028-226.18670454c9.10193946-9.10193946 21.89196202-12.12290665 33.54524698-9.2764694 11.66247019-2.84643724 24.45134376 0.17452995 33.56361749 9.2764694l226.17751815 226.18670454C554.82573451 659.54978849 554.82573451 682.05030792 540.94145809 695.93458321z" fill="#4285F4" p-id="2249"></path><path d="M1002.52588743 695.93458321l-12.56382248 12.56382246c-13.88427642 13.88427642-36.37560833 13.88427642-50.25873686 0l-37.25859008-37.25170058L902.44473801 872.79146116l-106.61681764 0-0.98287619-128.59030246-106.78445696 0 1.13444187 128.59030246-106.62485502 0L582.57017407 741.52006504c0 0 48.83609162-37.12539603 36.97038672-93.38817501s-53.01446383-85.93048602-53.01446383-85.93048602l142.71340898-142.71340896c9.10308846-9.10193946 21.89196202-12.12290665 33.54524696-9.27646941 11.66361807-2.84643724 24.45134376 0.17452995 33.56361749 9.27646941l226.17751815 226.18670453C1016.41016384 659.54978849 1016.41016384 682.05030792 1002.52588743 695.93458321z" fill="#E94335" p-id="2250"></path><path d="M665.08470561 373.70616801L499.90522474 538.83168186l-96.28168978-95.34014949 0-35.64648914-19.0707859 17.92830668-62.25074634-62.25074634L530.29286683 155.5328907c9.10308846-9.10193946 21.89196202-12.12290665 33.54524696-9.27646941 11.66361807-2.84643724 24.45134376 0.17452995 33.56361749 9.27646941l152.87859952 152.88319327 73.30006651 73.30236338C736.65670087 315.53045469 665.08470561 373.70616801 665.08470561 373.70616801z" fill="#FBBC05" p-id="2251"></path></svg>