<?xml version="1.0" standalone="no"?><!DOCTYPE svg PUBLIC "-//W3C//DTD SVG 1.1//EN" "http://www.w3.org/Graphics/SVG/1.1/DTD/svg11.dtd"><svg t="1685166097264" class="icon" viewBox="0 0 1024 1024" version="1.1" xmlns="http://www.w3.org/2000/svg" p-id="1978" xmlns:xlink="http://www.w3.org/1999/xlink" width="200" height="200"><path d="M996.608 511.584c-0.213333-1.045333-0.576-2.026667-0.853333-3.050667-0.149333-0.469333-0.256-1.002667-0.405334-1.472-0.106667-0.341333-0.234667-0.661333-0.341333-0.981333-0.405333-1.216-0.746667-2.432-1.28-3.584-30.186667-93.184-85.824-175.36-161.408-237.802667-90.154667-74.368-203.776-115.349333-319.957333-115.349333-116.288 0-229.994667 40.981333-320.192 115.392-75.712 62.634667-131.413333 144.981333-161.472 238.058667-0.277333 0.661333-0.469333 1.344-0.704 2.005333-0.234667 0.704-0.512 1.386667-0.746667 2.090667-0.32 0.981333-0.576 2.133333-0.874667 3.114666-0.106667 0.448-0.277333 0.874667-0.384 1.344-15.765333 52.224-23.018667 127.402667-23.018666 176.554667 0 23.552 19.114667 42.666667 42.666666 42.666667h337.237334c17.749333 54.08 68.138667 93.248 127.466666 93.248 59.264 0 109.589333-39.168 127.296-93.248h337.237334c23.573333 0 42.688-19.093333 42.688-42.666667 0-49.130667-7.274667-124.288-22.954667-176.32z m-484.266667 226.901333c-27.029333 0-49.024-22.677333-49.024-50.581333 0-3.861333 0.533333-7.637333 1.365334-11.306667 0.277333-1.237333 0.725333-2.389333 1.088-3.562666 0.704-2.346667 1.536-4.629333 2.56-6.826667 0.64-1.365333 1.365333-2.688 2.112-3.989333 1.088-1.877333 2.346667-3.648 3.669333-5.376 0.917333-1.194667 1.813333-2.432 2.837333-3.52a48.008 48.008 0 0 1 7.466667-6.613334c0.192-0.149333 0.341333-0.32 0.554667-0.469333 3.925333-2.645333 8.170667-4.586667 12.501333-5.973333 0.469333-0.149333 0.938667-0.32 1.408-0.448a48.469333 48.469333 0 0 1 26.624-0.085334c0.64 0.192 1.28 0.405333 1.92 0.618667 3.434667 1.130667 6.677333 2.794667 9.792 4.714667 0.725333 0.448 1.536 0.618667 2.24 1.109333 3.114667 2.133333 5.845333 4.650667 8.341333 7.381333 0.768 0.853333 1.429333 1.770667 2.154667 2.666667a52.666667 52.666667 0 0 1 4.309333 6.272c0.661333 1.130667 1.28 2.304 1.856 3.498667 1.109333 2.325333 1.984 4.736 2.709334 7.232 0.341333 1.109333 0.746667 2.197333 1.002666 3.349333 0.832 3.690667 1.365333 7.488 1.365334 11.349333 0 27.882667-21.909333 50.56-48.853334 50.56z m127.381334-93.269333c-0.213333-0.64-0.576-1.237333-0.810667-1.898667l-0.256-0.704c-0.618667-1.770667-1.216-3.541333-1.92-5.269333a130.282667 130.282667 0 0 0-4.117333-9.152c-0.149333-0.298667-0.256-0.618667-0.426667-0.917333-0.298667-0.597333-0.512-1.216-0.810667-1.813334-0.32-0.64-0.64-1.258667-0.981333-1.898666a132.746667 132.746667 0 0 0-7.146667-11.818667c-0.725333-1.066667-1.493333-2.112-2.24-3.157333-0.554667-0.768-1.194667-1.472-1.749333-2.24-0.042667-0.064-0.085333-0.106667-0.128-0.170667a146.597333 146.597333 0 0 0-4.778667-6.101333 143.530667 143.530667 0 0 0-4.842666-5.397334c-0.768-0.810667-1.450667-1.685333-2.218667-2.474666l-0.085333-0.085334c-1.066667-1.088-2.24-2.048-3.349334-3.093333-1.024-0.96-1.941333-2.048-3.008-3.008l-47.445333-169.472c-5.162667-18.410667-21.930667-31.168-41.066667-31.168h-0.021333a42.672 42.672 0 0 0-41.066667 31.125333l-47.616 169.514667c-1.216 1.088-2.261333 2.325333-3.434666 3.434667-0.938667 0.896-1.941333 1.706667-2.858667 2.645333-0.042667 0.042667-0.085333 0.106667-0.128 0.149333-0.661333 0.661333-1.237333 1.408-1.877333 2.069334a129.325333 129.325333 0 0 0-5.376 5.973333c-1.450667 1.728-2.816 3.541333-4.181334 5.333333-0.256 0.341333-0.554667 0.682667-0.810666 1.024-0.448 0.618667-0.96 1.173333-1.408 1.792-0.810667 1.130667-1.621333 2.24-2.410667 3.413334a141.093333 141.093333 0 0 0-6.997333 11.562666 188 188 0 0 0-1.088 2.090667c-0.234667 0.448-0.405333 0.938667-0.618667 1.386667-0.277333 0.554667-0.512 1.152-0.768 1.728a134.762667 134.762667 0 0 0-3.861333 8.576 132.533333 132.533333 0 0 0-2.005334 5.546666l-0.192 0.554667c-0.234667 0.661333-0.576 1.258667-0.810666 1.92H91.925333c1.962667-27.477333 5.696-57.130667 11.072-82.816h79.018667c23.552 0 42.666667-19.114667 42.666667-42.666667s-19.114667-42.666667-42.666667-42.666666h-49.6c21.205333-44.714667 50.090667-85.290667 85.354667-120.256l37.781333 38.421333a42.584 42.584 0 0 0 30.421333 12.757333c10.794667 0 21.610667-4.074667 29.930667-12.245333 16.789333-16.512 17.002667-43.541333 0.490667-60.330667l-31.978667-32.512c56-36.8 118.805333-59.2 185.258667-65.898666v46.293333c0 23.552 19.114667 42.666667 42.666666 42.666667s42.666667-19.114667 42.666667-42.666667v-46.186667c65.834667 6.869333 129.322667 29.546667 185.024 65.877334l-31.872 32.405333c-16.512 16.789333-16.298667 43.818667 0.490667 60.330667a42.509333 42.509333 0 0 0 29.909333 12.245333c11.029333 0 22.058667-4.245333 30.421333-12.757333l37.781334-38.4c35.221333 34.922667 64.085333 75.477333 85.312 120.256h-51.712c-23.552 0-42.666667 19.114667-42.666667 42.666666s19.114667 42.666667 42.666667 42.666667h81.130666c5.376 25.642667 9.109333 55.296 11.072 82.816H639.722667z" fill="#d81e06" p-id="1979"></path><path d="M324.565333 789.322667H42.666667c-23.552 0-42.666667 19.114667-42.666667 42.666666s19.114667 42.666667 42.666667 42.666667h281.898666c23.552 0 42.666667-19.114667 42.666667-42.666667s-19.114667-42.666667-42.666667-42.666666zM981.333333 789.322667H699.434667c-23.552 0-42.666667 19.114667-42.666667 42.666666s19.114667 42.666667 42.666667 42.666667H981.333333c23.552 0 42.666667-19.114667 42.666667-42.666667s-19.114667-42.666667-42.666667-42.666666z" fill="#1296db" p-id="1980"></path></svg>

