<?xml version="1.0" standalone="no"?><!DOCTYPE svg PUBLIC "-//W3C//DTD SVG 1.1//EN" "http://www.w3.org/Graphics/SVG/1.1/DTD/svg11.dtd"><svg t="1691002806492" class="icon" viewBox="0 0 1024 1024" version="1.1" xmlns="http://www.w3.org/2000/svg" p-id="3464" xmlns:xlink="http://www.w3.org/1999/xlink" width="200" height="200"><path d="M956.63756839 569.70364066q0 14.44182371-10.56486322 25.00668693t-25.00668694 10.56486322h-124.49848024q0 95.04583587-37.24255319 161.17203648L874.9305775 882.62181695Q885.49544073 893.18668017 885.49544073 907.62850388t-10.56486323 25.00668693q-9.99489361 10.56389058-25.00668692 10.56389058t-25.00668693-10.56389058L714.8624924 823.14753124q-2.7749544 2.77398177-8.32389058 7.22091185t-23.3337386 15.82881459-36.14054711 20.27574468-45.56644376 16.1137994-53.9263222 7.22091185v-497.99392098H476.43039513v497.99392098q-28.35063829 0-56.41629179-7.50589666t-48.34042552-18.3537994-36.67355624-21.6637082-24.18869301-18.06978723l-8.32389058-7.79088146-101.69677811 115.03756839q-11.13386019 11.6668693-26.67866262 11.66686929-13.33884498 0-23.9037082-8.89288753-10.56486322-9.99489361-11.38285714-24.72170213t8.60790273-25.85969605L259.69604863 757.48333671q-32.22759878-63.35221885-32.22759878-152.27914894h-124.49848024q-14.44182371 0-25.00668694-10.56486322t-10.56389057-25.00668693 10.56389057-25.00668693 25.00668694-10.56389058h124.49848024v-163.41398177l-96.14784195-96.14784194q-10.56486322-10.56486322-10.56486322-25.00668693t10.56486322-25.00668692 25.00668693-10.56389058 25.00571429 10.56486321l96.14881459 96.14784196h469.11027355l96.14784195-96.14784196q10.56486322-10.56486322 25.00668693-10.56486321t25.00668693 10.56486321 10.56389058 25.00668694-10.56389058 25.00668693l-96.14881459 96.14784194v163.41300912h124.49848024q14.44182371 0 25.00668694 10.56486323t10.56389057 25.00668692zM689.85483282 249.5664978H334.14516718q0-73.91708207 51.96838905-125.88644377T512 71.71069233t125.88547113 51.96838906 51.96936169 125.88644377z" fill="#044cf4" p-id="3465"></path></svg>