<?xml version="1.0" standalone="no"?><!DOCTYPE svg PUBLIC "-//W3C//DTD SVG 1.1//EN" "http://www.w3.org/Graphics/SVG/1.1/DTD/svg11.dtd"><svg t="1690885507588" class="icon" viewBox="0 0 1026 1024" version="1.1" xmlns="http://www.w3.org/2000/svg" p-id="3032" xmlns:xlink="http://www.w3.org/1999/xlink" width="200.390625" height="200"><path d="M758.09436786 963.76743709H272.44437163c-49.93219015 0-90.35348765-40.42129749-90.35348765-90.35348651V150.58604942c0-49.93219015 40.42129749-90.35348765 90.35348765-90.35348651h485.64999623c49.93219015 0 90.35348765 40.42129749 90.35348651 90.35348651v722.82790116c0 49.93219015-41.01572835 90.35348765-90.35348651 90.35348651z" fill="#F2CB51" p-id="3033"></path><path d="M543.50483456 459.6900864l-124.83047651-67.76511602-123.6416148 67.76511602V60.23256291h248.47209131v399.45752349z" fill="#E5404F" p-id="3034"></path><path d="M726.3121317 798.59492212H304.66252375c-13.31525132 0-24.09426307-10.77901297-24.09426428-24.09426307 0-13.31525132 10.77901297-24.09426307 24.09426428-24.09426429h421.64960795c13.31525132 0 24.09426307 10.77901297 24.09426306 24.09426429 0 13.31525132-11.41307255 24.09426307-24.09426306 24.09426307zM515.17029793 674.31924804H304.66252375c-13.31525132 0-24.09426307-10.77901297-24.09426428-24.09426307s10.77901297-24.09426307 24.09426428-24.09426428h211.14183376c13.31525132 0 24.09426307 10.77901297 24.09426308 24.09426428s-11.41307255 24.09426307-24.72832266 24.09426307z" fill="#044cf4" p-id="3035"></path></svg>