<?xml version="1.0" standalone="no"?><!DOCTYPE svg PUBLIC "-//W3C//DTD SVG 1.1//EN" "http://www.w3.org/Graphics/SVG/1.1/DTD/svg11.dtd"><svg t="1677132425416" class="icon" viewBox="0 0 1024 1024" version="1.1" xmlns="http://www.w3.org/2000/svg" p-id="1255" xmlns:xlink="http://www.w3.org/1999/xlink" width="200" height="200"><path d="M212.0075 62h599.985A150.0075 150.0075 0 0 1 962 212.0075v599.985A150.0075 150.0075 0 0 1 811.9925 962H212.0075A150.0075 150.0075 0 0 1 62 811.9925V212.0075A150.0075 150.0075 0 0 1 212.0075 62z m308.25 600.0075H233.4275a37.5075 37.5075 0 1 0 0 74.9925h286.785a112.5 112.5 0 0 0 212.2875 0h63.495a37.5075 37.5075 0 1 0 0-74.9925H732.5a112.5 112.5 0 0 0-212.1975 0zM293.39 287H231.2225a37.5075 37.5075 0 1 0 0 74.9925h62.19a112.5 112.5 0 0 0 212.1975 0h288a37.5075 37.5075 0 0 0 0-74.9925h-288a112.5 112.5 0 0 0-212.1975 0z" fill="#ed55a0" p-id="1256"></path></svg>