<?xml version="1.0" standalone="no"?><!DOCTYPE svg PUBLIC "-//W3C//DTD SVG 1.1//EN" "http://www.w3.org/Graphics/SVG/1.1/DTD/svg11.dtd"><svg t="1691003016803" class="icon" viewBox="0 0 1024 1024" version="1.1" xmlns="http://www.w3.org/2000/svg" p-id="3643" xmlns:xlink="http://www.w3.org/1999/xlink" width="200" height="200"><path d="M465.8 947l-143.4-64.8a389.4 389.4 0 0 1-225.6-352.8V269a111.6 111.6 0 0 1 78-106.2L463.4 74a169.8 169.8 0 0 1 97.8 0l288 88.8a111 111 0 0 1 79.2 106.2v258.6a391.2 391.2 0 0 1-225.6 352.8l-143.4 66.6a103.86 103.86 0 0 1-46.8 9.6 101.4 101.4 0 0 1-46.8-9.6z m30-766.8L208.4 269v258.6a278.4 278.4 0 0 0 160.8 252l144 66.6 142.8-66.6a277.8 277.8 0 0 0 161.4-252V269L528.8 180.2a60 60 0 0 0-33 0z m-13.8 577.2a30 30 0 0 1-30-30 30.6 30.6 0 0 1 30-30v-20.4a166.2 166.2 0 0 1-97.8-56.4l-39 22.2a30 30 0 0 1-40.92 40.92 31.2 31.2 0 0 1-11.28-10.92l-30-52.2a30 30 0 0 1 34.38-42.66 30.6 30.6 0 0 1 17.82 12.66l39-22.2A164.4 164.4 0 0 1 344 512a180 180 0 0 1 9.6-57l-17.4-10.2a30 30 0 0 1-25.8 15 25.8 25.8 0 0 1-15-4.2 29.4 29.4 0 0 1-10.8-40.8l30-52.2a29.4 29.4 0 0 1 40.8-10.8 30 30 0 0 1 12 38.4l18 10.8a165.6 165.6 0 0 1 98.4-57v-29.4a30 30 0 0 1 0-60h60a30 30 0 0 1 30 30 30.6 30.6 0 0 1-30 30v31.8a164.4 164.4 0 0 1 97.8 56.4l20.4-11.4a29.58 29.58 0 0 1 12.6-40.2 30 30 0 0 1 39.6 10.2l30 52.2a30.6 30.6 0 0 1-11.4 40.8 25.2 25.2 0 0 1-14.4 4.2 31.2 31.2 0 0 1-26.4-15l-19.8 11.4a169.8 169.8 0 0 1 0 115.8l38.4 22.2a30 30 0 0 1 37.8-10.8 28.8 28.8 0 0 1 10.2 39l-30 52.2a30 30 0 0 1-25.8 15 28.2 28.2 0 0 1-15-4.2 29.4 29.4 0 0 1-10.8-40.8l-39.6-22.8a168 168 0 0 1-96 55.2v19.8a30.6 30.6 0 0 1 30 30 30 30 0 0 1-30 30l-59.4 1.8z m-42-246A72 72 0 1 0 512 439.4 72 72 0 0 0 440.6 512l-0.6-0.6z" fill="#044cf4" p-id="3644"></path></svg>