<?xml version="1.0" standalone="no"?><!DOCTYPE svg PUBLIC "-//W3C//DTD SVG 1.1//EN" "http://www.w3.org/Graphics/SVG/1.1/DTD/svg11.dtd"><svg t="1691002438856" class="icon" viewBox="0 0 1024 1024" version="1.1" xmlns="http://www.w3.org/2000/svg" p-id="3434" xmlns:xlink="http://www.w3.org/1999/xlink" width="200" height="200"><path d="M615.53387816 69.03125v165.54950316a80.53977265 80.53977265 0 0 0 80.53977265 80.53977265H874.42897735V874.42897735a80.53977265 80.53977265 0 0 1-80.53977264 80.53977265H230.1107953a80.53977265 80.53977265 0 0 1-80.53977265-80.53977265V149.57102265a80.53977265 80.53977265 0 0 1 80.53977264-80.53977265h385.42308287z" fill="#044cf4" p-id="3435"></path><path d="M615.53387816 69.03125L874.42897735 315.12052581h-178.35532654a80.53977265 80.53977265 0 0 1-80.53977265-80.53977265V69.03125z" fill="#409EFF" p-id="3436"></path><path d="M267.63636335 365.3818178h73.3090911v73.3090911H267.63636335zM267.63636335 756.36363665h73.3090911v73.3090911H267.63636335zM267.63636335 560.87272775h73.3090911v73.30909005H267.63636335zM414.25454555 365.3818178h342.1090911v73.3090911H414.25454555zM414.25454555 756.36363665h342.1090911v73.3090911H414.25454555zM414.25454555 560.87272775h342.1090911v73.30909005H414.25454555z" fill="#ffd700" p-id="3437"></path></svg>