<?xml version="1.0" standalone="no"?><!DOCTYPE svg PUBLIC "-//W3C//DTD SVG 1.1//EN" "http://www.w3.org/Graphics/SVG/1.1/DTD/svg11.dtd"><svg t="1690886959848" class="icon" viewBox="0 0 1024 1024" version="1.1" xmlns="http://www.w3.org/2000/svg" p-id="3152" xmlns:xlink="http://www.w3.org/1999/xlink" width="200" height="200"><path d="M900.05830763 859.21006532h-776.11661526a40.84824326 40.84824326 0 0 0 0 81.69648557h776.11661526a40.84824326 40.84824326 0 0 0 0-81.69648557zM289.37707629 797.93770092h445.24584742a204.24121438 204.24121438 0 0 0 204.24121535-204.24121535V287.3346635a204.24121438 204.24121438 0 0 0-204.24121535-204.24121439H289.37707629a204.24121438 204.24121438 0 0 0-204.24121535 204.24121439V593.69648557a204.24121438 204.24121438 0 0 0 204.24121535 204.24121535z m-122.54472883-510.60303742a122.54472882 122.54472882 0 0 1 122.54472883-122.54472882h445.24584742a122.54472882 122.54472882 0 0 1 122.54472883 122.54472882V593.69648557a122.54472882 122.54472882 0 0 1-122.54472883 122.54472881H289.37707629a122.54472882 122.54472882 0 0 1-122.54472883-122.54472881z" fill="#044cf4" p-id="3153"></path><path d="M320.24690722 559.53543097a40.28426356 40.28426356 0 0 0 56.80081119 0 40.28426356 40.28426356 0 0 0 0-56.8008112l-49.95248676-49.95248676 52.36954256-52.36954254a40.28426356 40.28426356 0 0 0 0-56.80081119 40.28426356 40.28426356 0 0 0-57.20365414 0L244.10964964 422.16609263a40.28426356 40.28426356 0 0 0 0 56.80081118zM644.53522579 559.53543097a40.28426356 40.28426356 0 0 0 57.20365414 0l78.15147043-78.55431335a40.28426356 40.28426356 0 0 0 0-56.80081123l-76.13725758-80.56852711a40.28426356 40.28426356 0 1 0-56.80081119 56.80081119l49.95248676 49.95248675-52.36954256 52.36954255a40.28426356 40.28426356 0 0 0 0 56.8008112zM441.502539 573.63492278a40.28426356 40.28426356 0 0 0 55.18944127-14.50233478l100.71065752-174.83370222a40.28426356 40.28426356 0 0 0-70.09461806-40.28426357l-100.71065752 174.83370223a40.28426356 40.28426356 0 0 0 14.90517679 54.78659834z" fill="#d81e06" p-id="3154"></path></svg>