<?xml version="1.0" standalone="no"?><!DOCTYPE svg PUBLIC "-//W3C//DTD SVG 1.1//EN" "http://www.w3.org/Graphics/SVG/1.1/DTD/svg11.dtd"><svg t="1691003281778" class="icon" viewBox="0 0 1024 1024" version="1.1" xmlns="http://www.w3.org/2000/svg" p-id="5702" xmlns:xlink="http://www.w3.org/1999/xlink" width="200" height="200"><path d="M355.62474952 685.28878137V902.40442481a43.15127581 43.15127581 0 0 0 76.61508949 27.22845469L709.12 589.341919l-353.49525048 95.92528669z" fill="#409EFF" fill-opacity=".5" p-id="5703"></path><path d="M861.9833947 80.37262222a64.72691371 64.72691371 0 0 1 90.31562013 71.78214741L810.41761963 849.58726371a64.72691371 64.72691371 0 0 1-95.79583147 43.15127467l-359.1480684-207.62236245L777.40689408 252.33045617l-10.83097088-6.32166172L284.61932544 644.14403925l-181.38638791-104.8576a64.72691371 64.72691371 0 0 1-24.48834901-25.13561828l-1.98495801-3.99149283a64.72691371 64.72691371 0 0 1 31.97509518-85.76316075z" fill="#044cf4" p-id="5704"></path></svg>