<?xml version="1.0" standalone="no"?><!DOCTYPE svg PUBLIC "-//W3C//DTD SVG 1.1//EN" "http://www.w3.org/Graphics/SVG/1.1/DTD/svg11.dtd"><svg t="1690883798070" class="icon" viewBox="0 0 1024 1024" version="1.1" xmlns="http://www.w3.org/2000/svg" p-id="3213" xmlns:xlink="http://www.w3.org/1999/xlink" width="200" height="200"><path d="M556.58172137 755.66651237c-6.32528103 62.8040649 28.23939194 92.5881333 103.54518874 89.42662029h28.23939194v47.06640489H255.35627909v-47.06640489h42.36021541c65.89341785 0 97.22216272-29.78406841 94.13280977-89.42662029V204.99047722h-145.90540415c-47.06640489 0-76.92488836 7.8699575-89.42662028 23.53320244-12.576147 12.576147-25.15229398 51.77259438-37.65402591 117.66601221H67.09065955L90.62386199 120.27230142h37.65402591c9.41237898 9.41237898 17.20792141 15.73766001 23.53320245 18.82701296 9.41237898 3.16151301 20.37168943 4.70618949 32.94558142 4.70618948h574.20923761c25.07787891 3.16151301 43.90489187-4.70618949 56.47878386-23.53320244h42.3602154l18.82701295 225.91964545h-47.06640489c-12.576147-65.89341785-25.15229398-105.09212022-37.65402591-117.66601221-12.576147-15.66324494-43.97705194-23.53320244-94.13280977-23.53320245h-141.19921465v550.67378016z" fill="#000000" p-id="3214"></path><path d="M824.08921462 769.10430968c-2.64192 26.23686193 11.79648 38.67945291 43.25574193 37.35750194h11.79846194v19.66278193H698.25018495v-19.66278193h17.69670193c27.52710193 0 40.61580387-12.44259097 39.32358194-37.35750194V539.0570942h-60.95244387c-19.66278193 0-32.13510193 3.28803097-37.35750195 9.8304-5.25411097 5.25212903-10.50822193 21.62886193-15.73062193 49.15596387h-21.62886194l9.8304-94.37976774h15.73062194c3.93216 3.93216 7.18848 6.57408 9.8304 7.86432 3.93216 1.32195097 8.51043097 1.96608 13.76256 1.96608H908.63263655c10.47651097 1.32195097 18.34083097-1.96608 23.59494194-9.8304h17.69670193l7.86432 94.37976774h-19.66278193c-5.25212903-27.52710193-10.50624-43.90185291-15.73062194-49.15596387-5.25212903-6.54435097-18.37254193-9.8304-39.32358193-9.8304h-58.98636387v230.04721548z" fill="#044cf4" p-id="3215"></path></svg>