<?xml version="1.0" standalone="no"?><!DOCTYPE svg PUBLIC "-//W3C//DTD SVG 1.1//EN" "http://www.w3.org/Graphics/SVG/1.1/DTD/svg11.dtd"><svg t="1678374251596" class="icon" viewBox="0 0 1024 1024" version="1.1" xmlns="http://www.w3.org/2000/svg" p-id="1266" xmlns:xlink="http://www.w3.org/1999/xlink" width="200" height="200"><path d="M128.66179021 235.86529571c-2.65136501 0-4.71353681-2.06217291-4.71353681-4.71353682v-31.12898359c0-1.27658307 0.49099324-2.45496727 1.37478194-3.33875487 0.8837887-0.8837887 2.06217291-1.37478194 3.33875487-1.37478194h6.57931198v40.45785835l-6.57931198 0.09819887z m-3.33875487 95.44912258c-0.8837887-0.8837887-1.37478194-2.06217291-1.37478194-3.33875487v-51.35791278c0-1.27658307 0.49099324-2.45496727 1.37478194-3.33875597 0.8837887-0.8837887 2.06217291-1.37478194 3.33875487-1.37478082h6.57931198v60.78498637h-6.57931198c-1.27658307 0-2.45496727-0.49099324-3.33875487-1.37478193z m512.49894121 48.11735566v-93.58334743h6.57931198c1.27658307 0 2.45496727 0.49099324 3.33875488 1.37478194 0.8837887 0.8837887 1.37478194 2.06217291 1.37478194 3.33875488v84.1562738c0 2.65136501-2.06217291 4.71353681-4.71353682 4.71353681h-6.57931198z m-512.49894121 20.62172464c-0.8837887-0.8837887-1.37478194-2.06217291-1.37478194-3.33875598v-51.35791276c0-1.27658307 0.49099324-2.45496727 1.37478194-3.33875488 0.8837887-0.8837887 2.06217291-1.37478194 3.33875487-1.37478194h6.57931198v60.7849864h-6.57931198c-1.27658307 0-2.45496727-0.49099324-3.33875487-1.37478084z" fill="#6E8694" p-id="1267"></path><path d="M551.67619712 1020.14382945h-330.3403787c-24.64787049 0-47.82276016-9.62347136-65.20392769-27.00463889-17.4793664-17.38116753-27.10283775-40.55605721-27.10283664-65.2039277v-831.84106661c0-24.64787049 9.62347136-47.82276016 27.00463778-65.20392769 17.4793664-17.4793664 40.65425608-27.10283775 65.30212655-27.10283667h330.43857758c24.64787049 0 47.82276016 9.62347136 65.20392658 27.0046389 17.38116753 17.38116753 27.00463888 40.55605721 27.00463889 65.20392658v831.84106773c0 24.64787049-9.62347136 47.82276016-27.00463889 65.20392659-17.4793664 17.57756527-40.65425608 27.10283775-65.30212546 27.10283776z m-330.3403787-987.19138799c-16.8901743 0-32.79836103 6.57931198-44.68040191 18.46135286-11.88204089 11.98023976-18.46135287 27.79022762-18.46135287 44.68040193v831.84106661c0 16.8901743 6.57931198 32.70016215 18.46135287 44.58220416 11.88204089 11.98023976 27.79022762 18.55955174 44.68040191 18.55955174h330.43857758c16.8901743 0 32.70016215-6.57931198 44.58220305-18.46135398 11.88204089-11.88204089 18.46135287-27.79022762 18.46135286-44.58220304v-831.93926549c0-16.8901743-6.57931198-32.70016215-18.46135286-44.58220306-11.98023976-11.98023976-27.79022762-18.55955174-44.68040193-18.55955173h-330.3403787z" fill="#35444C" p-id="1268"></path><path d="M550.20321633 1015.2338949h-327.29621933c-24.35327387 0-47.33176693-9.52527248-64.6147356-26.71004228-17.28296867-17.28296867-26.71004228-40.16326284-26.71004228-64.6147356v-823.8869738c0-24.35327387 9.52527248-47.33176693 26.71004228-64.61473449 17.28296867-17.28296867 40.16326284-26.71004228 64.6147356-26.71004229h327.19802157c24.35327387 0 47.33176693 9.52527248 64.61473448 26.71004229 17.28296867 17.28296867 26.71004228 40.16326284 26.71004227 64.61473449v823.8869738c0 24.35327387-9.52527248 47.33176693-26.71004227 64.6147356-17.1847698 17.28296867-40.16326284 26.71004228-64.51653672 26.71004228z m-327.29621933-977.6661155c-16.69377657 0-32.40556667 6.48111311-44.18940869 18.26495623-11.78384202 11.78384202-18.26495513 27.49563212-18.26495513 44.18940759v823.8869738c0 16.69377657 6.48111311 32.40556667 18.26495513 44.18940869s27.49563212 18.26495513 44.18940869 18.26495513h327.19802157c16.69377657 0 32.40556667-6.48111311 44.18940757-18.26495513 11.78384202-11.78384202 18.26495513-27.49563212 18.26495624-44.18940869v-823.8869738c0-16.69377657-6.48111311-32.40556667-18.26495624-44.18940759-11.78384202-11.78384202-27.49563212-18.26495513-44.18940757-18.26495623h-327.19802157z" fill="#5F7A88" p-id="1269"></path><path d="M548.63203775 1010.22576149h-324.05566332c-49.7867342 0-90.34279142-40.55605721-90.34279031-90.3427903v-815.83468103c0-24.15687615 9.42707362-46.84077258 26.41544568-63.82914576 17.08657093-17.08657093 39.77046737-26.41544679 63.82914575-26.41544678h324.05566333c49.7867342 0 90.34279142 40.55605721 90.34279141 90.34279141v815.83468102c0 49.7867342-40.45785834 90.24459254-90.24459254 90.24459144z m-324.05566332-968.14084191c-16.5955777 0-32.11097006 6.48111311-43.89481209 18.16675625-11.68564315 11.68564315-18.16675736 27.29923439-18.16675736 43.79661433v815.83468103c0 34.17314297 27.79022762 62.06156945 62.06156945 62.06156945h324.05566332c34.17314297 0 62.06156945-27.79022762 62.06156945-62.06156945v-815.83468103c0-34.17314297-27.79022762-62.06156945-62.06156945-62.06156945h-324.05566332z" fill="#475B67" p-id="1270"></path><path d="M152.89133362 912.02707613c0 19.83613481 7.85589505 38.7884809 21.89830772 52.83089247 14.04241155 14.04241155 32.99475877 21.89830661 52.83089246 21.89830772h317.77094683c19.83613481 0 38.7884809-7.85589505 52.83089358-21.89830772 13.94421379-14.04241155 21.80010773-33.09295763 21.80010775-52.83089247v-800.02469316c0-19.83613481-7.85589505-38.7884809-21.89830661-52.83089247-13.94421379-13.94421379-32.8965599-21.80010773-52.73269472-21.80010773h-317.77094683c-19.83613481 0-38.7884809 7.85589505-52.83089246 21.89830661s-21.89830661 32.8965599-21.89830772 52.73269359v800.02469316z" fill="#90CACA" p-id="1271"></path><path d="M545.39148063 1000.79868787h-317.77094683c-23.76408178 0-46.05518386-9.23067699-62.74896043-26.02265131-16.79197543-16.79197543-26.02265131-39.0830764-26.0226513-62.74896043v-800.02469316c0-23.76408178 9.23067699-46.05518386 26.0226513-62.74895932 16.69377657-16.79197543 38.98487864-26.02265131 62.74896043-26.02265242h317.77094683c23.76408178 0 46.05518386 9.23067699 62.74896043 26.02265242 16.79197543 16.79197543 26.02265131 39.0830764 26.02265243 62.74895932v800.02469316c0 23.76408178-9.23067699 46.05518386-26.02265243 62.74896043-16.69377657 16.79197543-38.98487864 26.02265131-62.74896043 26.02265131z m-317.77094683-949.28669468c-16.20278333 0-31.32538022 6.28471537-42.81462674 17.67576303-11.39104766 11.39104766-17.67576303 26.61184342-17.67576303 42.81462675v800.02469316c0 16.20278333 6.28471537 31.32538022 17.67576303 42.81462676 11.39104766 11.39104766 26.61184342 17.67576303 42.81462674 17.67576413h317.77094683c16.20278333 0 31.32538022-6.28471537 42.81462787-17.67576413s17.67576303-26.61184342 17.67576303-42.81462676v-800.02469316c0-16.20278333-6.28471537-31.32538022-17.67576303-42.81462675s-26.61184342-17.67576303-42.81462787-17.67576303h-317.77094683z" p-id="1272"></path><path d="M166.79626788 866.74471577c53.12548907 26.51364565 113.02668675 41.43984591 176.36483926 41.43984592 100.75185149 0 192.66582147-37.70829558 262.58328597-99.8680639v-595.08403533c-69.81926564-62.06156945-161.83143447-99.76986503-262.58328597-99.76986504-63.33815252 0-123.23935021 14.92620027-176.36483926 41.43984592v711.84227243z" fill="#6DBAB9" p-id="1273"></path><path d="M166.79626788 809.39668423c24.45147275 6.28471537 50.0813297 9.62347136 76.49677648 9.62347024 169.68732842 0 307.26368789-137.96915384 307.26368789-308.24567435 0-170.17832275-137.57635836-308.24567435-307.26368789-308.24567436-26.41544679 0-52.04530373 3.33875487-76.49677648 9.62347136v597.24440711z" fill="#4EA6A4" p-id="1274"></path><path d="M385.58293953 378.50085067c-73.05982275 0-132.37182833 59.31200668-132.37182833 132.37182832s59.21380782 132.37182833 132.27363057 132.37182832c73.05982275 0 132.27362945-59.21380782 132.27362945-132.37182832 0.09819887-73.05982275-59.11560894-132.37182833-132.17543169-132.37182832z" fill="#82C5C3" p-id="1275"></path><path d="M491.98416243 50.75586357h-210.9307777l3.92794806 15.22079576c3.24055711 12.471233 14.43520703 21.21091564 27.39743326 21.21091674h148.28001504c12.96222621 0 24.15687615-8.73968264 27.39743326-21.21091674l3.92794808-15.22079576z" p-id="1276"></path><path d="M353.19112191 69.26926123c0 0.98198646 0.39279436 1.96397403 1.08018534 2.651365s1.66937743 1.08018534 2.65136391 1.08018534h57.24983377c0.98198646 0 1.96397403-0.39279436 2.65136501-1.08018534s1.08018534-1.66937743 1.08018533-2.651365c0-0.98198646-0.39279436-1.96397403-1.08018533-2.6513639s-1.66937743-1.08018534-2.65136501-1.08018644h-57.24983377c-0.98198646 0-1.96397403 0.39279436-2.65136391 1.08018644s-1.08018534 1.66937743-1.08018534 2.6513639z" fill="#2C2C2C" p-id="1277"></path><path d="M353.19112191 69.26926123c0 0.98198646 0.39279436 1.96397403 1.08018534 2.651365s1.66937743 1.08018534 2.65136391 1.08018534h6.77570971s7.26670294-2.45496727 16.3009822-4.41894131c9.23067699-1.96397403 25.23706258-3.04415937 25.23706147-3.04415937h-48.31375338c-0.98198646 0-1.96397403 0.39279436-2.65136391 1.08018644s-1.08018534 1.66937743-1.08018534 2.6513639z" fill="#5F5F5F" p-id="1278"></path><path d="M434.59292162 64.13346984c-2.84776164 0-5.10633117 2.3567684-5.10633117 5.10633228 0 2.84776164 2.25856954 5.20453004 5.10633117 5.20453005 2.84776164 0 5.20453004-2.25856954 5.20453115-5.20453005 0-2.74956277-2.3567684-5.10633117-5.20453115-5.10633228z" fill="#324864" p-id="1279"></path><path d="M432.33435208 66.58843711c-0.39279436-0.19639773-0.8837887 0.09819887-0.98198646 0.49099324-0.19639773 0.49099324 0 0.98198646 0.39279436 1.08018534 0.2945966 0.09819887 0.39279436-0.2945966 0.39279437-0.68738987 0-0.09819887 0.09819887-0.2945966 0.09819886-0.39279547 0.09819887-0.09819887 0.19639773-0.19639773 0.19639774-0.29459551 0.09819887-0.09819887 0.09819887-0.19639773-0.09819887-0.19639773z m6.38291425 0.88378871c-0.39279436-0.2945966-0.68739097 0.2945966-1.08018534 1.1783842-0.2945966 0.49099324-0.5891921 1.1783842-1.08018534 1.86577518-0.49099324 0.68739097-0.98198646 1.1783842-1.47297969 1.66937743-0.68739097 0.68739097-1.1783842 1.08018534-0.78558984 1.37478082 0.68739097 0.49099324 2.65136501-0.19639773 3.82974811-1.86577406 1.27658307-1.66937743 1.27658307-3.73155033 0.5891921-4.22254357z" fill="#436086" p-id="1280"></path><path d="M542.47105173 23.1669428V9.22272901h-9.32887474v13.94421379h9.32887474z m-403.4983992 126.28350958h-9.32887474v-13.9442138h9.32887474v13.9442138z m504.5448473 0h-9.32887475v-13.9442138h9.32887475v13.9442138z m-513.87372204 733.5441824h9.32887474v-13.94421379h-9.32887474v13.94421379z m513.87372204 0h-9.32887475v-13.94421379h9.32887475v13.94421379z m-393.77673009 117.83842242v13.94421379h-9.32887474v-13.94421379h9.32887474z" fill="#72787A" p-id="1281"></path><path d="M888.45644618 236.11373823v-41.63624254h6.77570861c1.27658307 0 2.55316614 0.49099324 3.43695374 1.37478194 0.8837887 0.8837887 1.37478194 2.16037067 1.37478194 3.43695373v31.91457233c0 1.27658307-0.49099324 2.55316614-1.37478194 3.43695484-0.8837887 0.8837887-2.16037067 1.37478194-3.43695374 1.37478083l-6.77570861 0.09819887z m10.21266235 98.19868536c-0.8837887 0.8837887-2.16037067 1.47298081-3.43695374 1.47298079h-6.77570861v-62.55256267h6.77570861c1.27658307 0 2.55316614 0.49099324 3.43695374 1.37478194 0.8837887 0.8837887 1.37478194 2.16037067 1.37478194 3.43695373v52.83089247c0 1.27658307-0.49099324 2.55316614-1.37478194 3.43695374z m-510.73136381 48.21555563c-0.8837887-0.8837887-1.37478194-2.16037067-1.37478194-3.43695484v-86.61123997c0-1.27658307 0.49099324-2.55316614 1.37478194-3.43695485 0.8837887-0.8837887 2.16037067-1.37478194 3.43695374-1.37478082h6.77570972v96.33291018h-6.77570972c-1.27658307-0.09819887-2.45496727-0.5891921-3.43695374-1.4729797z m500.51870146 23.9604784v-62.55256268h6.77570861c1.27658307 0 2.55316614 0.49099324 3.43695374 1.4729808 0.8837887 0.8837887 1.37478194 2.16037067 1.37478194 3.43695374v52.83089357c0 1.27658307-0.49099324 2.55316614-1.37478194 3.43695374-0.8837887 0.8837887-2.16037067 1.47298081-3.43695374 1.47297971l-6.77570861-0.09819888z" fill="#6E8694" p-id="1282"></path><path d="M807.69686498 1014.9638483h-329.84938547c-23.37128742 0-45.36779288-9.13247812-61.86517282-25.62985697-16.49737882-16.49737882-25.62985694-38.4938843-25.62985694-61.8651717v-830.85908016c0-23.37128742 9.13247812-45.36779288 25.62985694-61.86517172 16.49737882-16.49737882 38.4938843-25.62985694 61.86517282-25.62985694h329.84938547c23.37128742 0 45.36779288 9.13247812 61.86517172 25.62985694 16.49737882 16.49737882 25.62985694 38.4938843 25.62985695 61.86517172v830.85908016c0 23.37128742-9.13247812 45.36779288-25.62985695 61.8651717-16.5955777 16.49737882-38.4938843 25.62985694-61.86517172 25.62985697z m-329.84938547-986.40579816c-18.16675736 0-35.2533283 7.07030521-48.11735676 19.93433367-12.86402736 12.86402736-19.93433367 29.9505994-19.93433257 48.11735566v830.85908016c0 18.16675736 7.07030521 35.2533283 19.93433257 48.11735565 12.86402736 12.86402736 29.9505994 19.93433367 48.11735676 19.93433368h329.84938547c18.16675736 0 35.2533283-7.07030521 48.11735566-19.93433368 12.86402736-12.86402736 19.93433367-29.9505994 19.93433256-48.11735565v-830.85908016c0-18.16675736-7.07030521-35.2533283-19.93433256-48.11735566-12.86402736-12.86402736-29.9505994-19.93433367-48.11735566-19.93433367h-329.84938547z" fill="#35444C" p-id="1283"></path><path d="M807.69686498 1012.50888103h-329.75118771c-22.68389645 0-44.09120981-8.83788152-60.19579428-24.942466-16.00638559-16.00638559-24.94246598-37.41369897-24.94246597-60.0975954v-830.85908016c0-22.68389645 8.83788152-44.09120981 24.94246597-60.19579429 16.10458446-16.00638559 37.41369897-24.84426711 60.19579428-24.8442671h329.84938548c22.68389645 0 44.09120981 8.83788152 60.19579427 24.94246597s24.94246598 37.41369897 24.94246709 60.19579429v830.85908015c0 22.68389645-8.83788152 44.09120981-24.94246709 60.19579429-16.20278333 15.90818673-37.51189784 24.74606935-60.29399204 24.74606825z m-329.75118771-986.40579816c-18.85414724 0-36.52991137 7.36490182-49.88493195 20.62172464-13.25682283 13.35502169-20.62172354 31.03078472-20.62172354 49.88493196v830.85908016c0 18.85414724 7.36490182 36.52991137 20.62172354 49.88493195 13.35502169 13.35502169 31.03078472 20.62172354 49.88493195 20.62172466h329.84938548c18.85414724 0 36.52991137-7.36490182 49.88493305-20.62172466 13.35502169-13.35502169 20.62172354-31.03078472 20.62172354-49.88493195v-830.85908016c0-18.85414724-7.36490182-36.52991137-20.62172354-49.88493196-13.35502169-13.35502169-31.03078472-20.62172354-49.88493305-20.62172464h-329.84938548z" fill="#5F7A88" p-id="1284"></path><path d="M477.94567727 18.83637992c-20.62172354 0-40.35965948 8.15049054-54.99126313 22.78209532s-22.78209531 34.3695396-22.78209531 54.99126423v830.85908016c0 20.62172354 8.15049054 40.35965948 22.78209531 54.99126424 14.63160366 14.63160366 34.3695396 22.78209531 54.99126313 22.78209531h329.84938548c20.62172354 0 40.35965948-8.15049054 54.99126423-22.78209531 14.63160366-14.63160366 22.78209531-34.3695396 22.78209531-54.99126424v-830.85908016c0-20.62172354-8.15049054-40.35965948-22.78209531-54.99126423s-34.46773846-22.78209531-55.089462-22.78209532h-329.75118771z" fill="#47616E" p-id="1285"></path><path d="M807.69686498 1007.59894758h-329.75118771c-21.40731337 0-41.53804367-8.34688828-56.75883943-23.46948628-15.12259799-15.12259799-23.46948627-35.2533283-23.46948628-56.66064167v-830.85908016c0-21.40731337 8.34688828-41.53804367 23.46948628-56.75884054 15.12259799-15.12259799 35.35152717-23.46948627 56.75883943-23.46948629h329.84938548c21.40731337 0 41.53804367 8.34688828 56.75884053 23.46948629s23.46948627 35.2533283 23.46948628 56.75884054v830.85908016c0 21.40731337-8.34688828 41.53804367-23.46948628 56.75884054-15.22079576 15.02439913-35.44972603 23.37128742-56.8570383 23.37128741z m-329.75118771-986.30760039c-20.1307303 0-39.0830764 7.85589505-53.3218857 22.09470435-14.2388093 14.14061043-22.09470434 33.09295763-22.09470433 53.22368793v830.85908016c0 20.1307303 7.85589505 39.0830764 22.09470433 53.3218868 14.2388093 14.14061043 33.19115539 21.99650548 53.3218857 21.99650548h329.84938548c20.1307303 0 39.0830764-7.85589505 53.3218868-22.09470434s22.09470434-33.19115539 22.09470434-53.32188681v-830.76088129c0-20.1307303-7.85589505-39.0830764-22.09470434-53.3218868s-33.19115539-22.09470434-53.3218868-22.09470435h-329.84938548z" fill="#3E4F59" p-id="1286"></path><path d="M801.94340398 21.25501355v-9.62347134h-9.62347134v9.62347134h9.62347134z m-399.47225447 127.06909942h-9.62347135v-14.33700817h9.62347135v14.33700817z m490.30603802 0h-9.62347136v-14.33700817h9.62347136v14.33700817z m-499.92950937 753.67491381h9.62347135v-14.43520703h-9.62347135v14.43520703z m499.92950937 0h-9.62347136v-14.43520703h9.62347136v14.43520703z m-390.83076848 100.65365262v9.62347136h-9.62347136v-9.62347136h9.62347136z" fill="#72787A" p-id="1287"></path><path d="M648.45885779 490.93932802c5.40092778-8.64148488 16.39918106-11.48924652 16.39917996-11.48924653s2.16037067 11.09645106-3.24055601 19.73793594-16.39918106 11.48924652-16.39918106 11.48924653-2.16037067-11.19464991 3.24055711-19.73793594z m19.2469427 20.62172354c-3.73155033-1.47298081-7.75769618 0.49099324-11.88204088 2.45496727-3.33875487 1.57117858-6.67751085 3.24055711-10.1144646 3.24055711-3.43695373 0-6.87390748-1.66937743-10.11446568-3.24055711-4.12434471-1.96397403-8.05229168-3.92794697-11.88204089-2.45496727-7.07030521 2.74956277-13.35502169 6.67751085-18.6577495 11.68564426-10.40906119 9.72167022-16.79197543 23.17488967-16.79197543 38.00289107 0 14.82800139 6.48111311 28.28122196 16.79197543 38.00289107 5.30272891 4.90993455 11.58744539 8.93608039 18.6577495 11.68564426 3.73155033 1.47298081 7.75769618-0.39279436 11.88204089-2.3567684 3.24055711-1.57117858 6.67751085-3.14235824 10.11446568-3.14235824 3.43695373 0 6.87390748 1.57117858 10.1144646 3.14235824 4.12434471 1.96397403 8.15049054 3.82974921 11.88204088 2.3567684 6.97210634-2.74956277 13.35502169-6.67751085 18.6577495-11.68564426 3.53515261-3.33875487 6.67751085-7.07030521 9.13247812-11.19464992-12.471233-6.28471537-25.23706258-20.03253143-25.23706258-34.66413621 0-13.35502169 6.38291425-24.94246598 14.92620027-31.22718134-5.10633117-4.51713907-10.9982533-8.05229168-17.47936531-10.60545893z" fill="#143345" p-id="1288"></path><path d="M429.9314307 184.78233977a48.6132591 48.6132591 0 0 0 48.6083489 48.60834889h79.93373022c26.80824115 0 48.60835-21.80010773 48.60834999-48.60834889v-87.20043317c0-12.86402736-5.10633117-25.23706258-14.2388093-34.3695407s-21.40731337-14.2388093-34.36954069-14.23880929h-79.93373022a48.6132591 48.6132591 0 0 0-48.6083489 48.60834999v87.20043317z" fill="#3B5A6C" p-id="1289"></path><path d="M558.47350982 241.63937807h-79.93373022c-15.22079576 0-29.45960616-5.89192101-40.26146061-16.69377656-10.70365669-10.70365669-16.69377657-25.04066485-16.69377656-40.26146061v-87.1022343c0-15.22079576 5.89192101-29.45960616 16.69377656-40.26146171 10.70365669-10.70365669 25.04066485-16.69377657 40.26146061-16.69377657h79.93373022c15.22079576 0 29.45960616 5.89192101 40.26146171 16.69377657 10.70365669 10.70365669 16.69377657 25.04066485 16.69377656 40.26146171v87.20043317c0 31.32538022-25.53165809 56.85703941-56.95523827 56.8570383z m-79.93373022-184.41713095c-10.80185555 0-20.91632014 4.22254357-28.57581745 11.78384203-7.65949731 7.65949731-11.78384202 17.7739619-11.78384203 28.57581745v87.20043317c0 10.80185555 4.22254357 20.91632014 11.78384203 28.57581745 7.65949731 7.65949731 17.7739619 11.78384202 28.57581745 11.78384203h79.93373022c22.29110208 0 40.35965948-18.06855851 40.35966058-40.35965948v-87.20043317c0-10.80185555-4.22254357-20.91632014-11.78384313-28.57581745-7.65949731-7.65949731-17.7739619-11.78384202-28.57581745-11.78384203h-79.93373022z" fill="#4A5C69" p-id="1290"></path><path d="M429.9314307 184.78233977a48.6132591 48.6132591 0 0 0 48.6083489 48.60834889h79.93373022c26.80824115 0 48.60835-21.80010773 48.60834999-48.60834889v-87.20043317c0-12.86402736-5.10633117-25.23706258-14.2388093-34.3695407s-21.40731337-14.2388093-34.36954069-14.23880929h-79.93373022a48.6132591 48.6132591 0 0 0-48.6083489 48.60834999v87.20043317z" fill="#3B5A6C" p-id="1291"></path><path d="M558.47350982 238.20242434h-79.93373022c-14.2388093 0-27.69202986-5.59732551-37.80649333-15.61359124-10.11446458-10.11446458-15.7117901-23.56768404-15.71179011-37.80649333v-87.20043317c0-14.2388093 5.59732551-27.69202986 15.71179011-37.80649445s23.56768404-15.7117901 37.80649333-15.71178899h79.93373022c14.2388093 0 27.69202986 5.59732551 37.80649444 15.61359013 10.11446458 10.11446458 15.61359123 23.56768404 15.61359123 37.80649444v87.20043317c0.09819887 29.55780392-23.86228065 53.51828343-53.42008567 53.51828344z m-79.93373022-184.41713206c-11.68564315 0-22.68389645 4.61533795-30.93258587 12.86402846-8.24868942 8.24868942-12.7658296 19.2469427-12.76582959 30.93258586v87.20043317c0 11.68564315 4.51713907 22.68389645 12.76582959 30.93258586 8.24868942 8.24868942 19.2469427 12.7658296 30.93258587 12.76582849h79.93373022c24.15687615 0 43.69841545-19.63973707 43.69841545-43.69841435v-87.20043317c0-11.68564315-4.51713907-22.68389645-12.7658296-30.93258586-8.24868942-8.24868942-19.2469427-12.7658296-30.93258585-12.76582959h-79.93373022z" fill="#466270" p-id="1292"></path><path d="M607.08185981 97.5819066c0-12.86402736-5.10633117-25.23706258-14.2388093-34.3695407s-21.40731337-14.2388093-34.36954069-14.23880929h-79.93373022a48.6132591 48.6132591 0 0 0-48.6083489 48.60834999v87.20043317a48.6132591 48.6132591 0 0 0 48.6083489 48.60834889h79.93373022c26.80824115 0 48.60835-21.80010773 48.60834999-48.60834889v-87.20043317z" fill="#304B59" p-id="1293"></path><path d="M479.33715308 63.09059974c-17.28296867 0-31.32538022 14.04241155-31.32538022 31.32538133s14.04241155 31.32538022 31.32538022 31.32538023 31.32538022-14.04241155 31.32538133-31.32538023-14.04241155-31.32538022-31.32538133-31.32538133z" fill="#131313" p-id="1294"></path><path d="M479.33715308 130.84769358c-20.1307303 0-36.43171251-16.30098221-36.43171251-36.43171251s16.39918106-36.43171251 36.43171251-36.43171249 36.43171251 16.30098221 36.4317125 36.43171249-16.30098221 36.43171251-36.4317125 36.43171251z m0-62.65076155c-14.43520703 0-26.21904905 11.78384202-26.21904905 26.21904904s11.68564315 26.12085018 26.12085018 26.12085018 26.12085018-11.68564315 26.12085017-26.12085018-11.58744539-26.21904905-26.0226513-26.21904904z" fill="#1E3E54" p-id="1295"></path><path d="M479.33715308 81.65015149c-7.07030521 0-12.7658296 5.69552327-12.7658296 12.76582958 0 6.97210634 5.69552327 12.7658296 12.7658296 12.76582848s12.7658296-5.69552327 12.76582959-12.76582848c-0.09819887-7.07030521-5.79372215-12.7658296-12.76582959-12.76582958z" fill="#1C3562" p-id="1296"></path><path d="M479.33715308 112.28814185c-9.81986908 0-17.87216076-8.05229168-17.87216077-17.87216078s8.05229168-17.87216076 17.87216077-17.87216077 17.87216076 8.05229168 17.87216076 17.87216077-8.05229168 17.87216076-17.87216076 17.87216078z m0-25.43346033c-4.22254357 0-7.56129845 3.43695373-7.56129845 7.56129955s3.43695373 7.56129845 7.56129845 7.56129845 7.56129845-3.43695373 7.56129845-7.56129845-3.43695373-7.56129845-7.56129845-7.56129955z" fill="#302C35" p-id="1297"></path><path d="M473.05243771 94.71057658c0-3.24055711 2.45496727-6.18651761 3.33875485-6.18651651 0.49099324 0 0.2945966 0.78558984-0.09819885 1.86577406-0.2945966 1.1783842-0.78558984 2.74956277-0.78558984 4.32074245 0 1.66937743 0.49099324 3.14235824 0.78558984 4.12434469 0.2945966 0.8837887 0.49099324 1.47298081 0 1.47298082-0.8837887 0-3.24055711-2.3567684-3.240556-5.59732551z m9.23067588 4.12434469c0.2945966-0.98198646 0.78558984-2.45496727 0.78558982-4.12434469 0-1.57117858-0.39279436-3.14235824-0.78558982-4.32074245-0.2945966-1.1783842-0.49099324-1.86577518-0.09819888-1.86577406 0.8837887 0 3.33875487 2.94596051 3.33875597 6.18651651s-2.45496727 5.59732551-3.33875597 5.59732551c-0.39279436 0-0.19639773-0.5891921 0.09819888-1.47298082z m-4.12434472-4.4189402c0-0.8837887 0.49099324-1.66937743 1.17838421-1.66937743s1.1783842 0.68739097 1.1783842 1.66937743c0 0.8837887-0.49099324 1.66937743-1.1783842 1.66937745s-1.1783842-0.78558984-1.17838421-1.66937745z" fill="#2B5197" p-id="1298"></path><path d="M479.33715308 156.63859623c-17.28296867 0-31.32538022 14.04241155-31.32538022 31.32538022s14.04241155 31.32538022 31.32538022 31.32538133 31.32538022-14.04241155 31.32538133-31.32538133-14.04241155-31.32538022-31.32538133-31.32538022z" fill="#131313" p-id="1299"></path><path d="M479.33715308 224.39568895c-20.1307303 0-36.43171251-16.30098221-36.43171251-36.4317125s16.39918106-36.43171251 36.43171251-36.4317125 36.43171251 16.30098221 36.4317125 36.4317125-16.30098221 36.43171251-36.4317125 36.4317125z m0-62.65076155c-14.43520703 0-26.21904905 11.78384202-26.21904905 26.21904905s11.68564315 26.12085018 26.12085018 26.12085018 26.12085018-11.68564315 26.12085017-26.12085018-11.58744539-26.21904905-26.0226513-26.21904905z" fill="#1E3E54" p-id="1300"></path><path d="M479.33715308 175.19814796c-7.07030521 0-12.7658296 5.69552327-12.7658296 12.76582849 0 6.97210634 5.69552327 12.7658296 12.7658296 12.7658296s12.7658296-5.69552327 12.76582959-12.7658296c-0.09819887-7.07030521-5.79372215-12.7658296-12.76582959-12.76582849z" fill="#1C3562" p-id="1301"></path><path d="M479.33715308 205.83613722c-9.81986908 0-17.87216076-8.05229168-17.87216077-17.87216077s8.05229168-17.87216076 17.87216077-17.87216077 17.87216076 8.05229168 17.87216076 17.87216077-8.05229168 17.87216076-17.87216076 17.87216077z m0-25.43345921c-4.22254357 0-7.56129845 3.43695373-7.56129845 7.56129844s3.43695373 7.56129845 7.56129845 7.56129956 7.56129845-3.43695373 7.56129845-7.56129956-3.43695373-7.56129845-7.56129845-7.56129844z" fill="#302C35" p-id="1302"></path><path d="M473.05243771 188.25857305c0-3.24055711 2.45496727-6.18651761 3.33875485-6.18651761 0.49099324 0 0.2945966 0.78558984-0.09819885 1.86577517-0.2945966 1.1783842-0.78558984 2.74956277-0.78558984 4.32074244 0 1.66937743 0.49099324 3.14235824 0.78558984 4.12434472 0.2945966 0.8837887 0.49099324 1.47298081 0 1.4729797-0.8837887 0-3.24055711-2.3567684-3.240556-5.59732442z m9.23067588 4.12434472c0.2945966-0.98198646 0.78558984-2.45496727 0.78558982-4.12434472 0-1.57117858-0.39279436-3.14235824-0.78558982-4.32074244-0.2945966-1.1783842-0.49099324-1.86577518-0.09819888-1.86577517 0.8837887 0 3.33875487 2.94596051 3.33875597 6.18651761s-2.45496727 5.59732551-3.33875597 5.59732442c-0.39279436 0-0.19639773-0.5891921 0.09819888-1.4729797z m-4.12434472-4.41894132c0-0.8837887 0.49099324-1.66937743 1.17838421-1.66937743s1.1783842 0.68739097 1.1783842 1.66937743c0 0.8837887-0.49099324 1.66937743-1.1783842 1.66937744s-1.1783842-0.78558984-1.17838421-1.66937744z" fill="#2B5197" p-id="1303"></path><path d="M563.34416481 109.86361639c-17.28296867 0-31.32538022 14.04241155-31.32538022 31.32538022s14.04241155 31.32538022 31.32538022 31.32538134 31.32538022-14.04241155 31.32538023-31.32538134-14.04241155-31.32538022-31.32538023-31.32538022z" fill="#131313" p-id="1304"></path><path d="M563.34416481 177.62070911c-20.1307303 0-36.43171251-16.30098221-36.43171249-36.4317125s16.39918106-36.43171251 36.43171249-36.43171251 36.43171251 16.30098221 36.4317125 36.43171251-16.30098221 36.43171251-36.4317125 36.4317125z m0-62.65076155c-14.43520703 0-26.21904905 11.78384202-26.21904905 26.21904905s11.68564315 26.12085018 26.12085019 26.12085019 26.12085018-11.68564315 26.12085018-26.12085019-11.58744539-26.21904905-26.02265132-26.21904905z" fill="#1E3E54" p-id="1305"></path><path d="M563.34416481 128.42316812c-7.07030521 0-12.7658296 5.69552327-12.76582958 12.76582849 0 6.97210634 5.69552327 12.7658296 12.76582958 12.76582959s12.7658296-5.69552327 12.76582959-12.76582959c-0.09819887-7.07030521-5.79372215-12.7658296-12.76582959-12.76582849z" fill="#1C3562" p-id="1306"></path><path d="M563.34416481 159.06115737c-9.81986908 0-17.87216076-8.05229168-17.87216077-17.87216076s8.05229168-17.87216076 17.87216077-17.87216077 17.87216076 8.05229168 17.87216078 17.87216077-8.05229168 17.87216076-17.87216078 17.87216076z m0-25.43345921c-4.22254357 0-7.56129845 3.43695373-7.56129844 7.56129845 0 4.22254357 3.43695373 7.56129845 7.56129844 7.56129844s7.56129845-3.43695373 7.56129845-7.56129844c0-4.22254357-3.43695373-7.56129845-7.56129845-7.56129845z" fill="#302C35" p-id="1307"></path><path d="M557.05944944 141.48359321c0-3.24055711 2.45496727-6.18651761 3.33875487-6.18651761 0.49099324 0 0.2945966 0.78558984-0.09819886 1.86577517-0.2945966 1.1783842-0.78558984 2.74956277-0.78558985 4.32074244 0 1.66937743 0.49099324 3.14235824 0.78558985 4.12434471 0.2945966 0.8837887 0.49099324 1.47298081 0 1.4729797-0.8837887 0-3.24055711-2.3567684-3.24055601-5.59732441z m9.23067588 4.12434471c0.2945966-0.98198646 0.78558984-2.45496727 0.78558984-4.12434471 0-1.57117858-0.39279436-3.14235824-0.78558984-4.32074244-0.2945966-1.1783842-0.49099324-1.86577518-0.09819887-1.86577517 0.8837887 0 3.33875487 2.94596051 3.33875598 6.18651761s-2.45496727 5.59732551-3.33875598 5.59732441c-0.39279436 0-0.19639773-0.5891921 0.09819887-1.4729797z m-4.12434471-4.41894131c0-0.8837887 0.49099324-1.66937743 1.1783842-1.66937744s1.1783842 0.68739097 1.17838421 1.66937744c0 0.8837887-0.49099324 1.66937743-1.17838421 1.66937743s-1.1783842-0.78558984-1.1783842-1.66937743z" fill="#2B5197" p-id="1308"></path><path d="M563.33041685 63.09059974c-8.54328602 0-15.41719349 6.87390748-15.41719348 15.4171935s6.87390748 15.41719349 15.41719348 15.41719461 15.41719349-6.87390748 15.41719351-15.41719461-6.87390748-15.41719349-15.41719351-15.4171935z" fill="#F0E0CE" p-id="1309"></path><path d="M563.33041685 95.39796754c-9.32887475 0-16.8901743-7.56129845-16.89017429-16.8901743s7.56129845-16.8901743 16.89017429-16.8901732 16.8901743 7.56129845 16.89017431 16.8901732-7.56129845 16.8901743-16.89017431 16.8901743z m0-30.83438699c-7.65949731 0-13.94421379 6.28471537-13.94421267 13.94421269 0 7.65949731 6.28471537 13.94421379 13.94421267 13.9442138 7.65949731 0 13.94421379-6.28471537 13.94421381-13.9442138 0-7.65949731-6.28471537-13.94421379-13.94421381-13.94421269z" fill="#CCC2B9" p-id="1310"></path><path d="M567.16016606 77.03481354h-7.85589504v-8.15049054h7.85589504v8.15049054z m0.19639664 11.09645105h-7.85589394v-8.24868941h7.85589394v8.24868941z" fill="#F0EECE" p-id="1311"></path><path d="M563.28524549 188.41569125c-9.32887475 0-16.8901743 7.56129845-16.8901743 16.89017318s7.56129845 16.8901743 16.8901743 16.89017431 16.8901743-7.56129845 16.8901743-16.89017431-7.56129845-16.8901743-16.8901743-16.89017318z" fill="#242424" p-id="1312"></path><path d="M589.20969905 189.00488334c0.68739097 0 1.27658307-1.7675763 1.27658307-4.02614694s-0.5891921-4.02614584-1.27658307-4.02614584c-0.68739097 0-1.27658307 1.7675763-1.27658308 4.02614584s0.5891921 4.02614584 1.27658308 4.02614694z" p-id="1313"></path></svg>