<?xml version="1.0" standalone="no"?><!DOCTYPE svg PUBLIC "-//W3C//DTD SVG 1.1//EN" "http://www.w3.org/Graphics/SVG/1.1/DTD/svg11.dtd"><svg t="1690886165805" class="icon" viewBox="0 0 1024 1024" version="1.1" xmlns="http://www.w3.org/2000/svg" p-id="3517" xmlns:xlink="http://www.w3.org/1999/xlink" width="200" height="200"><path d="M292.88267493 146.79117779A146.09149713 146.09149713 0 0 0 438.97417096 292.88267493h146.05165808A146.09149713 146.09149713 0 0 0 731.11732507 146.79117779h73.02582904A146.09149713 146.09149713 0 0 1 950.23465015 292.88267493v511.26047918A146.09149713 146.09149713 0 0 1 804.14315411 950.23465015H219.85684589A146.09149713 146.09149713 0 0 1 73.76534985 804.14315411V292.88267493a146.09149713 146.09149713 0 0 1 146.09149604-146.09149714H292.88267493z m0 0h438.23465014-438.23465014z m255.6501591 292.18299317a36.53283403 36.53283403 0 1 0 0 73.02582904h219.11732508a36.53283403 36.53283403 0 0 0 0-73.02582904h-219.11732508z m0 219.11732617a36.53283403 36.53283403 0 1 0 0 73.02582794h219.11732508a36.53283403 36.53283403 0 0 0 0-73.02582794h-219.11732508z m-240.51114375-203.97831082l-25.81600517-25.85584421a36.53283403 36.53283403 0 0 0-51.6718494 51.67184939l51.6718494 51.63200926a36.41331581 36.41331581 0 0 0 51.63200925 0l103.30385975-103.30385865a36.53283403 36.53283403 0 1 0-51.6718494-51.63200927L308.02169028 454.07334727z m0 219.11732507l-25.81600517-25.85584421a36.53283403 36.53283403 0 0 0-51.6718494 51.67184939l51.6718494 51.63201035a36.41331581 36.41331581 0 0 0 51.63200925 0l103.30385975-103.30385974a36.53283403 36.53283403 0 1 0-51.6718494-51.63200927L308.02169028 673.19067234zM438.97417096 73.76534985h146.05165808a73.02582904 73.02582904 0 1 1 0 146.09149604h-146.05165808a73.02582904 73.02582904 0 0 1 0-146.09149604z" fill="#044cf4" p-id="3518"></path></svg>