<?xml version="1.0" standalone="no"?><!DOCTYPE svg PUBLIC "-//W3C//DTD SVG 1.1//EN" "http://www.w3.org/Graphics/SVG/1.1/DTD/svg11.dtd"><svg t="1690886163621" class="icon" viewBox="0 0 1024 1024" version="1.1" xmlns="http://www.w3.org/2000/svg" p-id="3366" xmlns:xlink="http://www.w3.org/1999/xlink" width="200" height="200"><path d="M404.41569975 172.85688479h221.03269048c19.49861862 0 35.2052627-15.20933702 35.20526268-33.87910831V102.81933944c0-18.69049312-15.85169288-33.87910832-35.20526268-33.87910832H404.41569975c-19.51933947 0-35.24670535 15.18861521-35.24670535 33.87910832v36.15843703c0 18.66977129 15.83097204 33.87910832 35.24670535 33.87910832z" fill="#f8b427" p-id="3367"></path><path d="M784.90455897 121.85224134h-105.92097265v35.48206686c0 21.78723374-18.30516747 39.39209726-40.94832766 39.39209727H391.58662645c-22.68206717 0-41.00668723-17.62431611-41.00668724-39.39209727V121.85224134h-105.90152006c-58.16413404 0-105.24012128 45.28632218-105.24012127 101.05775105v624.41823739c0 55.77142887 47.17325197 101.03829758 105.24012127 101.03829758h540.10942249c58.16413404 0 105.24012128-45.26686961 105.24012219-101.03829758v-624.43768996c0.11671732-55.77142887-47.05653466-101.03829758-105.12340486-101.03829848z m-89.73616961 680.81215805H328.85106414a60.20668723 60.20668723 0 0 1-60.20668724-60.18723374c0-25.56109422 5.6024316-50.4024319 16.61276627-74.03769027a195.79331307 195.79331307 0 0 1 44.23586625-60.34285715 208.88510608 208.88510608 0 0 1 113.95501458-53.65106352 127.02735593 127.02735593 0 0 1-58.72826717-106.97142857c0-70.12765988 57.11367812-127.24133708 127.26079059-127.24133708s127.24133708 57.01641337 127.24133708 127.14407234a127.10516717 127.10516717 0 0 1-58.76717326 107.02978723 209.11854073 209.11854073 0 0 1 114.05227934 53.67051702 195.01519788 195.01519788 0 0 1 44.23586625 60.34285714 175.27051641 175.27051641 0 0 1 16.61276627 74.03769028 60.20668723 60.20668723 0 0 1-60.18723374 60.20668632z" fill="#044cf4" p-id="3368"></path></svg>