<?xml version="1.0" standalone="no"?><!DOCTYPE svg PUBLIC "-//W3C//DTD SVG 1.1//EN" "http://www.w3.org/Graphics/SVG/1.1/DTD/svg11.dtd"><svg t="1691002885717" class="icon" viewBox="0 0 1024 1024" version="1.1" xmlns="http://www.w3.org/2000/svg" p-id="3464" xmlns:xlink="http://www.w3.org/1999/xlink" width="200" height="200"><path d="M856.32077776 594.54222351H425.92203809a25.54878374 25.54878374 0 0 1-27.51407448-21.61820093l-68.78518695-271.21016488a29.47936524 29.47936524 0 0 1 5.89587361-25.54878378 27.51407451 27.51407451 0 0 1 23.58349303-11.79174578h566.00382141a27.51407451 27.51407451 0 0 1 23.58349164 11.79174578 23.58349301 23.58349301 0 0 1 3.93058287 25.54878378l-66.81989621 271.21016488a29.47936524 29.47936524 0 0 1-29.47936525 21.61820093z m-406.81524663-58.9587305h385.19704576l53.06285825-212.25143301h-491.32276227z" fill="#044cf4" p-id="3465"></path><path d="M785.57030007 804.8283658H516.32542732a29.47936524 29.47936524 0 0 1-29.4793666-29.47936523 29.47936524 29.47936524 0 0 1 29.4793666-29.47936664h239.76550754v-43.23640179H361.06743403a29.47936524 29.47936524 0 0 1-27.51407451-21.61820228l-115.95217161-438.25990262h-121.84804521a29.47936524 29.47936524 0 1 1 0-58.95873187h145.43153685a25.54878374 25.54878374 0 0 1 27.5140759 21.61820088l115.95217157 436.29461327h400.91937305a29.47936524 29.47936524 0 0 1 29.47936526 29.47936528v102.19513502a31.44465734 31.44465734 0 0 1-9.8264551 21.61820089 35.37523885 35.37523885 0 0 1-19.65291016 9.82645509z" fill="#d81e06" p-id="3466"></path><path d="M396.44267287 899.16233649a78.61164204 78.61164204 0 1 1 78.611642-78.611642 78.61164204 78.61164204 0 0 1-78.611642 78.611642z m0-117.91746373a39.3058203 39.3058203 0 1 0 39.30582029 39.30582173 39.3058203 39.3058203 0 0 0-39.30582029-39.30582173zM870.07781572 897.19704574a56.99343974 56.99343974 0 0 1-58.9587319-58.95873184 58.95873184 58.95873184 0 0 1 58.9587319-58.95873188 60.92402258 60.92402258 0 0 1 58.95873044 58.95873188 58.95873184 58.95873184 0 0 1-58.95873044 58.95873184z m0-84.50751561a25.54878374 25.54878374 0 0 0-27.51407592 25.54878377 27.51407451 27.51407451 0 0 0 27.51407592 27.51407449 27.51407451 27.51407451 0 0 0 27.5140745-27.51407449 27.51407451 27.51407451 0 0 0-27.5140745-25.54878377z" fill="#044cf4" p-id="3467"></path><path d="M512.40933298 491.98578761a30.5610874 30.5610874 0 0 1-30.56108741-30.56108883v-69.2717984a30.5610874 30.5610874 0 0 1 61.1221748 0V461.42469878a30.5610874 30.5610874 0 0 1-30.56108739 30.56108883zM644.84071458 491.98578761a30.5610874 30.5610874 0 0 1-30.56108887-30.56108883v-69.2717984a30.5610874 30.5610874 0 0 1 61.12217625 0V461.42469878a30.5610874 30.5610874 0 0 1-30.56108738 30.56108883zM779.30950028 491.98578761a30.5610874 30.5610874 0 0 1-30.56108742-30.56108883v-69.2717984a30.5610874 30.5610874 0 0 1 61.12217625 0V461.42469878a30.5610874 30.5610874 0 0 1-30.56108883 30.56108883z" fill="#d81e06" p-id="3468"></path></svg>