<?xml version="1.0" standalone="no"?><!DOCTYPE svg PUBLIC "-//W3C//DTD SVG 1.1//EN" "http://www.w3.org/Graphics/SVG/1.1/DTD/svg11.dtd"><svg t="1691002682378" class="icon" viewBox="0 0 1280 1024" version="1.1" xmlns="http://www.w3.org/2000/svg" p-id="3434" xmlns:xlink="http://www.w3.org/1999/xlink" width="250" height="200"><path d="M214.36392365 849.32839366h264.01160512a31.71542869 31.71542869 0 0 1 0 63.41538643H182.91150098a31.68448681 31.68448681 0 0 1-31.91655092-31.48336457V278.68274149H119.41875984a31.91655091 31.91655091 0 0 1-31.83919622-31.83919623v-126.55229591a31.87013808 31.87013808 0 0 1 31.83919622-31.82372528h126.5522959c17.59045972 0 31.83919622 14.27967838 31.83919621 31.82372528v126.55229591a31.83919622 31.83919622 0 0 1-31.83919621 31.83919623h-31.59166114v232.4818277h264.0116051a31.69995775 31.69995775 0 0 1 0 63.39991549H214.36392365v274.76390898zM404.57914103 120.29124937c0-17.57498877 12.85635183-31.82372527 28.63671148-31.8237253H1153.65115371c15.79583058 0 28.60576958 14.27967838 28.60576959 31.82372528v126.55229591c0 17.59045972-12.82540993 31.83919622-28.60576959 31.83919623H433.21585251c-15.79583058 0-28.60576958-14.24873651-28.63671148-31.83919623v-126.55229591zM613.25119085 479.58837898c0-17.57498877 12.68617147-31.83919622 28.60576954-31.83919621H1153.65115371c15.79583058 0 28.60576958 14.29514931 28.60576959 31.83919621v126.5522959c0 17.59045972-12.67070051 31.83919622-28.60576959 31.83919622H641.84148949c-15.78035965-0.01547093-28.5748277-14.26420743-28.60576959-31.83919622v-126.5522959zM613.25119085 817.75220345c0-17.59045972 12.68617147-31.83919622 28.60576954-31.83919621H1153.65115371c15.79583058 0 28.60576958 14.29514931 28.60576959 31.83919621v126.56776686c0 17.57498877-12.67070051 31.82372527-28.60576959 31.82372524H641.84148949c-15.78035965-0.01547093-28.5748277-14.26420743-28.60576959-31.82372524v-126.56776686z" fill="#ffd700" p-id="3435"></path><path d="M239.84654048 828.53132363h281.61237882a33.8297906 33.8297906 0 1 1 0 67.64307882H206.29728963a33.81328827 33.81328827 0 0 1-34.04432098-33.59875786V219.82612562H138.57169908a34.02781862 34.02781862 0 0 1-33.96180931-33.94530694v-135.00561799a33.99481395 33.99481395 0 0 1 33.96180931-33.96180928h134.98911566c18.76315703 0 33.9618093 15.23165694 33.96180927 33.96180928v135.00561799a33.9618093 33.9618093 0 0 1-33.96180927 33.94530693h-33.69777191v247.98061621h281.61237878a33.8297906 33.8297906 0 0 1 0 67.64307887H239.84654048v293.08150294z" fill="#d81e06" p-id="3436"></path><path d="M329.24412838 50.89170302c0-18.74665469 13.71344195-33.9618093 30.54582556-33.9618093H1128.25427521c16.84888595 0 30.51282089 15.23165694 30.51282089 33.9618093v135.00561799c0 18.74665469-13.68043726 33.94530695-30.51282089 33.94530695H359.78995394c-16.84888595 0-30.51282089-15.19865228-30.54582556-33.94530695v-135.00561799zM551.82764817 434.14197463c0-18.74665469 13.53191623-33.9618093 30.51282089-33.96180932H1128.25427521c16.84888595 0 30.51282089 15.23165694 30.51282089 33.96180932v135.00561798c0 18.74665469-13.51541388 33.94530695-30.51282089 33.94530693H582.32396672c-16.83238363-0.01650233-30.47981621-15.2151546-30.51282089-33.94530693v-135.00561798zM551.82764817 794.85005404c0-18.74665469 13.53191623-33.9618093 30.51282089-33.96180925H1128.25427521c16.84888595 0 30.51282089 15.24815926 30.51282089 33.96180925v135.00561798c0 18.76315703-13.51541388 33.94530695-30.51282089 33.94530698H582.32396672c-16.83238363-0.01650233-30.47981621-15.19865228-30.51282089-33.94530698V794.85005404z" fill="#044cf4" p-id="3437"></path></svg>