<?xml version="1.0" standalone="no"?><!DOCTYPE svg PUBLIC "-//W3C//DTD SVG 1.1//EN" "http://www.w3.org/Graphics/SVG/1.1/DTD/svg11.dtd"><svg t="1677132469394" class="icon" viewBox="0 0 1024 1024" version="1.1" xmlns="http://www.w3.org/2000/svg" p-id="1102" xmlns:xlink="http://www.w3.org/1999/xlink" width="200" height="200"><path d="M294.22 752.82H160.59A115.79 115.79 0 0 1 44.93 637.17V377.81a115.79 115.79 0 0 1 115.66-115.65h133.63a26.57 26.57 0 0 1 21.34 42.39c-8.44 11.37-13.09 24.91-13.09 38.12v329.64A61 61 0 0 0 315.23 710a26.57 26.57 0 0 1-21 42.82zM160.59 315.29a62.6 62.6 0 0 0-62.53 62.52v259.36a62.6 62.6 0 0 0 62.53 62.52h92a116.36 116.36 0 0 1-3.23-27.38V342.67a113 113 0 0 1 3.42-27.38z" fill="#f73636" p-id="1103"></path><path d="M599.08 907.93a115.88 115.88 0 0 1-53.24-13L312.3 775.14l-0.54-0.28a119.73 119.73 0 0 1-38.67-32.5l-0.2-0.28c-15.18-20.46-23.54-45.24-23.54-69.77V342.67a113.65 113.65 0 0 1 23.81-70.14 122 122 0 0 1 38.6-32.9l0.54-0.28 233.61-119.78A116.16 116.16 0 0 1 714.77 222.9v569.18a116 116 0 0 1-115.69 115.85zM336.82 728l233.33 119.64a62.63 62.63 0 0 0 91.49-55.56V222.9a63 63 0 0 0-91.57-56L336.82 286.48a68.35 68.35 0 0 0-21.47 18.34l-0.12 0.17a60.9 60.9 0 0 0-12.76 37.68v329.64c0 13.15 4.61 26.64 13 38A67 67 0 0 0 336.82 728z" fill="#f73636" p-id="1104"></path><path d="M774.67333333 731a26.56 26.56 0 0 1 0-53.12c91.1 0 159.8-73.27 159.8-170.43s-68.7-170.42-159.8-170.42a26.57 26.57 0 0 1 0-53.13c59.5 0 114 23.5 153.51 66.18 38.32 41.4 59.42 97.29 59.42 157.37s-21.1 116-59.42 157.37C888.68333333 707.54 834.17333333 731 774.67333333 731z" fill="#fba33d" p-id="1105"></path><path d="M774.67333333 621.66a26.57 26.57 0 0 1 0-53.13c37.21 0 50.41-32.88 50.41-61s-13.2-61-50.41-61a26.57 26.57 0 0 1 0-53.13c30.83 0 58.21 12.5 77.1 35.18 17 20.5 26.44 48.55 26.44 79s-9.39 58.49-26.44 79c-18.89 22.58-46.24 35.08-77.1 35.08z" fill="#fba33d" p-id="1106"></path></svg>