<?xml version="1.0" standalone="no"?><!DOCTYPE svg PUBLIC "-//W3C//DTD SVG 1.1//EN" "http://www.w3.org/Graphics/SVG/1.1/DTD/svg11.dtd"><svg t="1691002391344" class="icon" viewBox="0 0 1024 1024" version="1.1" xmlns="http://www.w3.org/2000/svg" p-id="3585" xmlns:xlink="http://www.w3.org/1999/xlink" width="200" height="200"><path d="M884.96035277 357.53131739c-3.50674302 9.36130342-6.43118843 18.99715283-10.66438669 28.01993069-5.82945442 12.42261709-15.89696558 21.69159543-25.53362528 31.17842873-4.59602032 4.52394191-9.06084115 9.1839418-14.32419482 14.53395177-20.16903742-43.56784101-47.29891888-81.25439669-82.02053499-113.26618282-34.79774433-32.0814353-74.49278072-56.30711803-120.38657266-72.93458786 5.2422975-5.02201248 9.84479689-9.40017701 14.4124717-13.81478588 7.38440693-7.13820646 14.76719493-14.27722239 22.08843259-21.47940924 0.8868089-0.8722318 1.88052158-2.0813694 2.00038188-3.22085866 3.50998255-33.59670475-13.89172359-58.22408394-43.07139023-64.12885631-3.69382324-0.74751139-7.54800175-0.9637466-11.32848048-0.96698611-68.5134999-0.05507126-137.02780929-0.06640962-205.54211948-0.02915499-31.30476893 0.01781743-54.30754563 23.15746239-54.32779312 54.50677368-0.00161977 2.28464728 0.21785579 4.59359027-0.0485922 6.84584302-0.4535282 3.82826225 1.40674672 6.08213397 4.02101207 8.70449736 11.11548483 11.15354892 21.86247798 22.6755887 32.86539023 34.18953125-43.73953385 15.99010095-83.50664864 40.031943-118.28738502 72.09637034-34.79369451 32.07576652-62.06692329 69.72587704-82.06102836 113.17790757-21.63571388-20.68411513-43.98654462-39.98416028-49.56817879-71.05568684-0.42113286-2.34457784-1.23100486-4.61950653-1.85865512-6.92763923v-22.84566258c0.38630828-1.04473411 0.97103595-2.06031244 1.12815089-3.13825138 2.82645156-19.4231458 11.00129329-36.35917592 24.65734447-50.32135895 21.27532105-21.75476552 42.90698592-43.16290582 64.52002388-64.58481374 9.8780017-9.78972562 21.61870674-16.87205054 34.8665832-20.95947141 8.2736459-2.55190474 16.93846017-3.8404101 25.60570369-5.73631905 0.2405317-1.41565502 0.5304659-3.09208924 0.8090617-4.76852263 0.09313537-0.5636707 0.14982639-1.13139042 0.23810248-1.69506114 7.34229382-46.40806017 32.90669467-78.3097038 76.6616159-95.25221378 8.74013222-3.38364237 18.23911337-4.80658674 27.38904008-7.13496693h233.02834474c1.38650003 0.43247123 2.74546402 1.0738891 4.16435857 1.26582944 52.13790015 7.063698 94.5087514 50.90041704 99.63847716 103.29747581 0.35310428 3.59744833 1.28526583 5.22043106 5.28684069 5.5986405 21.3117654 2.01334001 40.20768486 9.94360103 55.54502873 25.0323152 22.37998574 22.01473361 44.49271482 44.30401403 66.49368083 66.69695872 10.04321547 10.22138658 16.4695446 22.70474451 20.59988887 36.38509137 0.96941617 3.21033058 2.00119217 6.40122314 3.00381317 9.60102565l-0.00081028 33.13021843z" fill="#d81e06" p-id="3586"></path><path d="M791.26438818 818.22491548c14.41959835 14.40232083 28.62927796 28.59299517 42.83463775 42.78539814 5.60301395 5.59696726 11.22330541 11.17579356 16.79522072 16.80299516 17.90442053 18.08064855 18.33635226 45.80287012 1.01244748 63.48614283-17.60034064 17.96489095-45.60504565 18.33808001-63.96904192 0.43193085-17.44398219-17.01032271-34.52946079-34.39210672-51.71687496-51.66331552-2.71425728-2.72635066-5.14084787-5.74123232-7.8931148-8.8390443-64.1469977 48.28129239-135.2956027 73.54150576-214.9489378 73.51472605-79.45637404-0.02850747-150.36741716-25.39065555-213.88465776-73.05255909-1.78560444 1.70353755-3.41139405 3.19024536-4.96893967 4.74692579-18.0987895 18.08496836-36.14661164 36.22003977-54.29118611 54.25922315-18.546271 18.4374244-46.68314679 18.89872705-64.44503002 1.1627601-17.97784865-17.95193325-17.47853636-46.14150503 1.18781119-64.8553653 19.21576461-19.26414079 38.4660834-38.49459087 57.69221453-57.74922944 0.27816361-0.27730017 0.42847623-0.68245132 0.8414027-1.3631749-64.209195-86.81562153-87.27865191-183.45336305-64.55042109-289.45451399 18.14975773-84.65078133 63.14664448-153.28727337 132.25566909-205.28404054 137.05529087-103.11844008 326.37860239-91.20058908 450.11572028 24.5060608 127.74976069 119.46013348 152.16338811 320.97945962 37.93308039 470.56508021z m-538.66165907-214.71569398c-1.04959369 141.79185103 114.52056558 258.96965896 256.13273309 261.51027942 145.15486891 2.60541068 265.86501176-114.69161036 265.99804687-261.02565258 0.13044305-143.83402262-116.6232076-260.69133747-260.91939718-261.23297924-143.56795327-0.53905057-261.21051935 116.89618882-261.21138278 260.7483524z" fill="#044cf4" p-id="3587"></path><path d="M514.10177857 693.97428145c-17.5960217-0.50881537-30.83558331-7.94235442-40.44778542-21.9732148-36.12242399-52.72500348-72.24571143-105.44914265-108.34567379-158.19055848-4.35905216-6.36839647-4.43852698-11.25699614-0.4742612-15.52793385 3.95735563-4.26229896 9.49989916-4.43334372 15.97887083 0 52.9141892 36.20621863 105.87761802 72.34246376 158.6121237 108.80697643 17.67895289 12.22452294 24.7272095 31.02649678 20.15564742 50.36320226-4.51886611 19.10950923-19.51725244 32.66178947-39.93551456 36.02048841-1.99206767 0.32740408-4.03078376 0.36973355-5.54340698 0.50104003zM573.69880977 642.51742915c-2.23654058-32.46914823-25.5020942-46.34969514-48.53872385-61.13643585 8.78721262-6.08245841 16.72697585-11.62845744 24.71597954-17.10189179 31.26665073-21.42206997 62.54885122-42.82168005 93.82586761-64.22820026 0.83708289-0.57274129 1.67848559-1.13770727 2.52852705-1.68971555 6.82883566-4.44543798 11.77445024-4.52145816 15.95209026-0.2522482 4.02300931 4.11371495 3.9798164 9.46102519-0.519181 16.0402047-24.82568959 36.30469871-49.71530509 72.56706795-74.5824607 108.84239576-4.08002424 5.95115105-8.15745641 11.90230211-13.38209891 19.52589119z" fill="" p-id="3588"></path></svg>