<?xml version="1.0" standalone="no"?><!DOCTYPE svg PUBLIC "-//W3C//DTD SVG 1.1//EN" "http://www.w3.org/Graphics/SVG/1.1/DTD/svg11.dtd"><svg t="1690886511314" class="icon" viewBox="0 0 1170 1024" version="1.1" xmlns="http://www.w3.org/2000/svg" p-id="3307" xmlns:xlink="http://www.w3.org/1999/xlink" width="228.515625" height="200"><path d="M939.20833333 90.125H215.99404738C149.6994044 90.125 95.45833333 144.36607107 95.45833333 210.66071405v482.14285703c0 66.29464298 54.24107108 120.53571405 120.53571405 120.53571487h331.47321487v60.26785702h-241.07142892c-18.08035703 0-30.13392892 12.05357108-30.13392893 30.1339281s12.05357108 30.13392892 30.13392893 30.13392893h542.41071405c18.08035703 0 30.13392892-12.05357108 30.13392892-30.13392893s-12.05357108-30.13392892-30.13392892-30.1339281h-241.0714281v-60.26785702H939.20833333c66.29464298 0 120.53571405-54.24107108 120.53571405-120.53571488V210.66071405c0-66.29464298-54.24107108-120.53571405-120.53571405-120.53571405z m60.26785702 602.67857108c0 36.16071405-24.10714297 60.26785702-60.26785702 60.26785785H215.99404738c-36.16071405 0-60.26785702-24.10714297-60.26785702-60.26785785V210.66071405c0-36.16071405 24.10714297-60.26785702 60.26785703-60.26785702h723.21428594c36.16071405 0 60.26785702 24.10714297 60.26785703 60.26785703v482.14285702z" fill="#044cf4" p-id="3308"></path><path d="M862.34569726 376.39732153l-90.40178616 90.40178539-146.90290134-197.75390624c-5.65011183-5.65011183-16.95033472-11.30022289-28.25055838-11.3002229-5.65011183 0-16.95033472 5.65011183-22.60044654 16.95033472L483.78821947 506.34988817 399.03654513 382.04743337c-5.65011183-5.65011183-11.30022289-11.30022289-22.60044653-11.30022365s-16.95033472 0-22.60044655 5.65011182l-113.00223191 113.00223193c-5.65011183 11.30022289-5.65011183 33.90066942 0 45.20089307 5.65011183 11.30022289 28.25055836 11.30022289 39.55078125 0l90.40178537-90.40178615 96.05189799 141.25279029c5.65011183 5.65011183 11.30022289 11.30022289 22.60044577 11.30022365h5.65011183c11.30022289 0 16.95033472-5.65011183 22.60044654-16.95033471L608.09067426 342.49665212l141.25279029 186.4536826c5.65011183 5.65011183 11.30022289 11.30022289 22.60044654 11.30022365 5.65011183 0 16.95033472 0 22.60044654-5.65011183l113.00223193-113.00223192c11.30022289-11.30022289 11.30022289-28.25055836 0-39.55078125-11.30022289-11.30022289-33.90066942-11.30022289-45.20089231-5.65011183z" fill="#d81e06" p-id="3309"></path></svg>