<?xml version="1.0" standalone="no"?><!DOCTYPE svg PUBLIC "-//W3C//DTD SVG 1.1//EN" "http://www.w3.org/Graphics/SVG/1.1/DTD/svg11.dtd"><svg t="1678178776745" class="icon" viewBox="0 0 1024 1024" version="1.1" xmlns="http://www.w3.org/2000/svg" p-id="1157" xmlns:xlink="http://www.w3.org/1999/xlink" width="200" height="200"><path d="M512 711.92173698m-297.18096017 0a297.18096017 297.18096017 0 1 0 594.36192034 0 297.18096017 297.18096017 0 1 0-594.36192034 0Z" fill="#FCCA1E" p-id="1158"></path><path d="M512 285.06181256c-45.92796693 0-81.04935266-35.12138573-81.04935266-81.04935265v-108.06580313c0-45.92796693 35.12138573-81.04935266 81.04935266-81.04935266s81.04935266 35.12138573 81.04935266 81.04935266v108.06580313c0 43.226321-35.12138573 81.04935266-81.04935266 81.04935265z" fill="#FF354A" p-id="1159"></path><path d="M819.98754009 836.19741062H204.01245991c-54.03290219 0-97.25922318-43.226321-97.25922319-97.25922318v-232.34147804c0-224.23654277 181.01022051-405.24676328 405.24676328-405.24676329s405.24676328 181.01022051 405.24676328 405.24676329v232.34147804c0 54.03290219-43.226321 97.25922318-97.25922319 97.25922318z" fill="#2953FF" p-id="1160"></path><path d="M917.24676328 836.19741062H106.75323672c-45.92796693 0-81.04935266-35.12138573-81.04935266-81.04935265s35.12138573-81.04935266 81.04935266-81.04935266h810.49352656c45.92796693 0 81.04935266 35.12138573 81.04935266 81.04935266s-35.12138573 81.04935266-81.04935266 81.04935265z" fill="#93A8FF" p-id="1161"></path></svg>