<?xml version="1.0" standalone="no"?><!DOCTYPE svg PUBLIC "-//W3C//DTD SVG 1.1//EN" "http://www.w3.org/Graphics/SVG/1.1/DTD/svg11.dtd"><svg t="1690886679722" class="icon" viewBox="0 0 1024 1024" version="1.1" xmlns="http://www.w3.org/2000/svg" p-id="3002" xmlns:xlink="http://www.w3.org/1999/xlink" width="200" height="200"><path d="M908.31486737 866.59751352h-792.62973474a41.7173548 41.7173548 0 0 0 0 83.43470866h792.62973474a41.7173548 41.7173548 0 0 0 0-83.43470866zM284.64041834 804.02148179h454.71916332a208.58677213 208.58677213 0 0 0 208.58677313-208.58677313V282.55454995a208.58677213 208.58677213 0 0 0-208.58677313-208.58677213H284.64041834a208.58677213 208.58677213 0 0 0-208.58677313 208.58677213V595.43470867a208.58677213 208.58677213 0 0 0 208.58677313 208.58677312z m-125.15206349-521.46693184a125.15206348 125.15206348 0 0 1 125.15206349-125.15206347h454.71916332a125.15206348 125.15206348 0 0 1 125.15206349 125.15206347V595.43470867a125.15206348 125.15206348 0 0 1-125.15206349 125.15206346H284.64041834a125.15206348 125.15206348 0 0 1-125.15206349-125.15206346z" fill="#044cf4" p-id="3003"></path><path d="M289.22932701 651.33596434a41.7173548 41.7173548 0 0 0 22.52737141 6.67477606A41.7173548 41.7173548 0 0 0 345.1305817 637.15206348a196.07156579 196.07156579 0 0 1 329.14992696 0 41.7173548 41.7173548 0 1 0 69.25080877-46.72343736 279.50627544 279.50627544 0 0 0-142.25617849-108.46512135 155.18855871 155.18855871 0 1 0-179.38462465 0A279.08910157 279.08910157 0 0 0 276.71412066 595.43470867a41.7173548 41.7173548 0 0 0 12.51520635 55.90125567zM512 282.55454995a72.17102295 72.17102295 0 1 1-71.75385006 71.75385005A71.75385006 71.75385006 0 0 1 512 282.55454995z" fill="#d81e06" p-id="3004"></path></svg>