<?xml version="1.0" standalone="no"?><!DOCTYPE svg PUBLIC "-//W3C//DTD SVG 1.1//EN" "http://www.w3.org/Graphics/SVG/1.1/DTD/svg11.dtd"><svg t="1684669884855" class="icon" viewBox="0 0 1024 1024" version="1.1" xmlns="http://www.w3.org/2000/svg" p-id="1486" xmlns:xlink="http://www.w3.org/1999/xlink" width="200" height="200"><path d="M864.65947948 1015.91121178h-679.19603498c-57.73166335 0-104.49169722-46.76003511-104.49169721-104.49169722v-679.19603495c0-57.73166335 46.76003511-104.49169722 104.49169721-104.49169722h679.19603498c57.73166335 0 104.49169722 46.76003511 104.49169722 104.49169722v679.19603495c0 57.47043329-46.76003511 104.49169722-104.49169722 104.49169722z" fill="#2953FF" p-id="1487"></path><path d="M681.79900906 213.41497404h-313.47509289c-57.73166335 0-104.49169722-46.76003511-104.49169844-104.49169721s46.76003511-104.49169722 104.49169844-104.49169846h313.47509289c57.73166335 0 104.49169722 46.76003511 104.49169721 104.49169846s-46.76003511 104.49169722-104.49169721 104.49169721z" fill="#FCCA1E" p-id="1488"></path><path d="M536.55554854 562.41724371H289.95514295c-32.91488476 0-59.56026765-26.6453829-59.56026764-59.56026767v-11.49408591c0-32.91488476 26.6453829-59.56026765 59.56026764-59.56026765h246.60040559c32.91488476 0 59.56026765 26.6453829 59.56026762 59.56026765v11.49408591a59.87374274 59.87374274 0 0 1-59.56026762 59.56026767zM670.56615073 797.52356336H267.48942756a59.82149647 59.82149647 0 0 1-59.82149648-59.82149648v-11.23285711a59.82149647 59.82149647 0 0 1 59.82149648-59.8214977h403.07672317a59.82149647 59.82149647 0 0 1 59.8214977 59.8214977v11.23285711a59.82149647 59.82149647 0 0 1-59.8214977 59.82149648z" fill="#93A8FF" p-id="1489"></path></svg>