<?xml version="1.0" standalone="no"?><!DOCTYPE svg PUBLIC "-//W3C//DTD SVG 1.1//EN" "http://www.w3.org/Graphics/SVG/1.1/DTD/svg11.dtd"><svg t="1677131489662" class="icon" viewBox="0 0 1024 1024" version="1.1" xmlns="http://www.w3.org/2000/svg" p-id="914" xmlns:xlink="http://www.w3.org/1999/xlink" width="200" height="200"><path d="M384 504c-86.4 0-155.2-70.4-155.2-155.2S299.2 192 384 192s155.2 70.4 155.2 155.2c0 36.8-12.8 72-35.2 99.2-11.2 14.4-9.6 33.6 4.8 44.8 14.4 11.2 33.6 9.6 44.8-4.8 32-40 51.2-89.6 51.2-140.8C604.8 227.2 505.6 128 384 128s-219.2 99.2-219.2 219.2c0 73.6 36.8 137.6 91.2 177.6C115.2 576 11.2 705.6 1.6 862.4 0 880 12.8 896 30.4 896c17.6 1.6 33.6-12.8 33.6-30.4 11.2-168 152-299.2 320-299.2s308.8 131.2 320 299.2c1.6 17.6 14.4 30.4 32 30.4h1.6c17.6-1.6 30.4-16 30.4-33.6-12.8-201.6-182.4-358.4-384-358.4z" fill="#1afa29" p-id="915"></path><path d="M688 288c72 0 129.6 59.2 129.6 129.6 0 30.4-11.2 59.2-30.4 83.2-11.2 14.4-9.6 33.6 4.8 44.8 6.4 4.8 12.8 8 20.8 8 9.6 0 17.6-3.2 24-11.2 28.8-35.2 44.8-78.4 44.8-123.2C883.2 310.4 795.2 224 688 224c-17.6 0-32 14.4-32 32s14.4 32 32 32z" fill="#FFB243" p-id="916"></path><path d="M776 560c-17.6-4.8-35.2 4.8-40 22.4-4.8 17.6 4.8 35.2 22.4 40 112 30.4 192 128 200 244.8 1.6 17.6 14.4 30.4 32 30.4h1.6c17.6-1.6 30.4-16 30.4-33.6-8-145.6-107.2-267.2-246.4-304z" fill="#f68124" p-id="917"></path></svg>