<?xml version="1.0" standalone="no"?><!DOCTYPE svg PUBLIC "-//W3C//DTD SVG 1.1//EN" "http://www.w3.org/Graphics/SVG/1.1/DTD/svg11.dtd"><svg t="1684919995909" class="icon" viewBox="0 0 1024 1024" version="1.1" xmlns="http://www.w3.org/2000/svg" p-id="1718" xmlns:xlink="http://www.w3.org/1999/xlink" width="200" height="200"><path d="M72.44681778 87.81753497h424.18246503c14.1394155 0 23.56569251 9.42627701 23.56569249 23.56569249v801.23354508c0 14.1394155-9.42627701 23.56569251-23.56569249 23.56569249H72.44681778c-14.1394155 0-23.56569251-9.42627701-23.5656925-23.56569249V111.38322746c0-14.1394155 9.42627701-23.56569251 23.5656925-23.56569249z" fill="#FFFFFF" p-id="1719"></path><path d="M520.1949753 983.31385002H48.88112528c-25.92226175 0-47.13138501-21.20912324-47.131385-47.13138499V87.81753497c0-25.92226175 21.20912324-47.13138501 47.131385-47.13138499h471.31385002c25.92226175 0 47.13138501 21.20912324 47.13138502 47.13138499v848.36493006c0 25.92226175-21.20912324 47.13138501-47.13138502 47.13138499zM48.88112528 87.81753497v848.36493006h471.31385002V87.81753497H48.88112528z" fill="#13173C" p-id="1720"></path><path d="M72.44681778 158.51461249h424.18246503v636.27369752H72.44681778z" fill="#579AFF" p-id="1721"></path><path d="M284.5380503 865.48538751m-47.13138501 0a47.13138501 47.13138501 0 1 0 94.26277 0 47.13138501 47.13138501 0 1 0-94.26277 0Z" fill="#C5C5C5" p-id="1722"></path><path d="M178.49243404 111.38322746h117.82846252c7.06970774 0 11.78284625 4.7131385 11.78284623 11.78284628s-4.7131385 11.78284625-11.78284623 11.78284624h-117.82846252c-7.06970774 0-11.78284625-4.7131385-11.78284624-11.78284624s4.7131385-11.78284625 11.78284624-11.78284628zM343.45228156 111.38322746h23.56569249c7.06970774 0 11.78284625 4.7131385 11.78284625 11.78284628s-4.7131385 11.78284625-11.78284625 11.78284624h-23.56569249c-7.06970774 0-11.78284625-4.7131385-11.78284627-11.78284624s4.7131385-11.78284625 11.78284627-11.78284628z" fill="#C5C5C5" p-id="1723"></path><path d="M394.61642448 331.49494813h618.87446357v410.00433211h-224.34199305c-10.31457439 0-20.62914878 7.73593079-30.94372318 12.89321799l-128.9321799 95.40981311 2.57864359-79.93795153c0-15.47186158-12.893218-28.36507958-28.36507957-28.36507957h-214.02741865V331.49494813h5.15728719z" fill="#8DCC4A" p-id="1724"></path><path d="M603.01396277 889.05108002c-4.7131385 0-7.06970774 0-9.42627702-2.35656925-7.06970774-4.7131385-14.1394155-11.78284625-14.13941549-21.20912326v-96.61933924H388.56616099c-14.1394155 0-23.56569251-9.42627701-23.5656925-23.5656925V323.47445999c0-14.1394155 9.42627701-23.56569251 23.5656925-23.56569252h612.70800504c14.1394155 0 23.56569251 9.42627701 23.5656925 23.56569252v421.82589578c0 14.1394155-9.42627701 23.56569251-23.5656925 23.5656925h-228.58721726l-155.53357051 115.47189325c-4.7131385 2.35656924-9.42627701 4.7131385-14.13941549 4.7131385zM412.13185349 721.73466327h190.88210928c14.1394155 0 23.56569251 9.42627701 23.56569248 23.5656925V818.35400252l124.89817025-91.90620076c4.7131385-2.35656924 9.42627701-4.7131385 14.1394155-4.71313849h212.09123253V347.04015249H412.13185349v374.69451078z" fill="#13173C" p-id="1725"></path><path d="M622.79050361 512m-47.13138499 0a47.13138501 47.13138501 0 1 0 94.26277001 0 47.13138501 47.13138501 0 1 0-94.26277001 0Z" fill="#FFFFFF" p-id="1726"></path><path d="M858.44742864 512m-47.13138501 0a47.13138501 47.13138501 0 1 0 94.26276999 0 47.13138501 47.13138501 0 1 0-94.26276999 0Z" fill="#FFFFFF" p-id="1727"></path><path d="M154.92674154 252.77738248h188.52554002c18.85255399 0 35.34853876 16.49598475 35.34853874 35.34853876s-16.49598475 35.34853876-35.34853874 35.34853875h-188.52554002c-18.85255399 0-35.34853876-16.49598475-35.34853876-35.34853875S136.07418754 252.77738248 154.92674154 252.77738248z" fill="#FFFFFF" p-id="1728"></path><path d="M154.92674154 417.73723h70.69707751c18.85255399 0 35.34853876 16.49598475 35.34853875 35.34853874s-16.49598475 35.34853876-35.34853875 35.34853875h-70.69707751c-18.85255399 0-35.34853876-16.49598475-35.34853876-35.34853875S136.07418754 417.73723 154.92674154 417.73723z" fill="#FFFFFF" p-id="1729"></path></svg>