<?xml version="1.0" standalone="no"?><!DOCTYPE svg PUBLIC "-//W3C//DTD SVG 1.1//EN" "http://www.w3.org/Graphics/SVG/1.1/DTD/svg11.dtd"><svg t="1690885354712" class="icon" viewBox="0 0 1024 1024" version="1.1" xmlns="http://www.w3.org/2000/svg" p-id="3389" xmlns:xlink="http://www.w3.org/1999/xlink" width="200" height="200"><path d="M634.35424532 398.83588137h-150.88549149c-13.67399765 0-25.4619267-9.90186039-27.8195125-23.57585805l-18.86068644-113.16411863c-1.41455148-8.01579175 0.94303431-16.50310064 6.12972308-23.10434089S456.12075849 229.08970343 464.60806739 229.08970343h188.60686439c8.48730888 0 16.03158347 3.7721373 21.68978941 9.90186037s7.54427456 14.61703199 6.12972307 23.10434089l-18.86068643 113.16411863c-2.3575858 13.67399765-14.14551483 23.57585804-27.81951251 23.57585805zM507.51612903 342.25382206h102.7907411l9.4303432-56.58205932H498.0857858l9.43034323 56.58205932zM558.91149959 804.34063979c-8.01579175 0-16.03158347-3.7721373-21.21827225-9.90186037l-113.16411864-130.61025359c-6.1297231-7.07275741-8.48730888-16.50310064-6.1297231-24.99040952l42.4365445-175.87590105c3.30062011-12.73096334 14.61703199-21.6897894 27.34799533-21.6897894h150.88549152c13.67399765 0 25.4619267 9.90186039 27.81951248 23.10434087l33.00620128 175.87590105c1.41455148 8.48730888-0.94303431 17.44613494-6.60124026 23.57585805l-113.16411864 130.61025359c-5.18668877 6.1297231-13.20248052 9.90186039-21.21827222 9.90186037z m-82.04398603-166.44555782l82.04398603 94.77494935 82.98702031-95.71798367-26.40496099-139.09756248H510.345232l-33.47771844 140.0405968z" fill="#d81e06" p-id="3390"></path><path d="M166.97517609 424.48641492h60.35419661v171.50650869h-60.35419661z" fill="#044cf4" p-id="3391"></path><path d="M814.27393466 946.0472639H298.2455537c-72.42503592 0-131.27037761-58.84534169-131.27037761-130.76742597v-75.9456974h60.35419661v75.9456974c0 38.72727616 31.68595323 70.41322937 70.916181 70.41322935h516.02838096c39.23022779 0 70.91618099-31.68595323 70.91618099-70.41322935v-603.54196601c0-38.72727616-31.68595323-70.41322937-70.91618099-70.4132294H298.2455537c-39.23022779 0-70.91618099 31.68595323-70.916181 70.4132294v80.47226212h-60.35419661v-80.47226212c0-71.92208428 58.84534169-130.76742597 131.27037761-130.767426h516.02838096c72.42503592 0 131.27037761 58.84534169 131.2703776 130.767426v603.54196601c0 71.92208428-58.84534169 130.76742597-131.2703776 130.76742597z" fill="#044cf4" p-id="3392"></path><path d="M262.53598738 694.57144472H110.64459259c-16.59740406 0-30.1770983-13.57969423-30.17709829-30.17709829s13.57969423-30.1770983 30.17709829-30.17709831h151.89139479c16.59740406 0 30.1770983 13.57969423 30.1770983 30.17709831s-13.0767426 30.1770983-30.1770983 30.17709829zM262.53598738 392.80046171H110.64459259c-16.59740406 0-30.1770983-13.57969423-30.17709829-30.17709832s13.57969423-30.1770983 30.17709829-30.17709829h151.89139479c16.59740406 0 30.1770983 13.57969423 30.1770983 30.17709829s-13.0767426 30.1770983-30.1770983 30.17709832z" fill="#f8b427" p-id="3393"></path></svg>