<?xml version="1.0" standalone="no"?><!DOCTYPE svg PUBLIC "-//W3C//DTD SVG 1.1//EN" "http://www.w3.org/Graphics/SVG/1.1/DTD/svg11.dtd"><svg t="1684920400645" class="icon" viewBox="0 0 1024 1024" version="1.1" xmlns="http://www.w3.org/2000/svg" p-id="1634" xmlns:xlink="http://www.w3.org/1999/xlink" width="200" height="200"><path d="M949.54451489 319.83247068L439.76443402 151.16478476v876.03328552h437.72156283c66.03888753 0 119.5073702-53.11438675 119.50737021-118.62213041V385.16316641c0-29.68504061-19.12117924-55.94715403-47.44885217-65.33069573z" fill="#402AD2" p-id="1635"></path><path d="M909.82675679 361.79283623L433.92185148 203.15786778v823.98118652h408.62668209c61.61268865 0 111.59922817-49.98653953 111.59922816-111.59922818V423.2284769c0-27.85554504-17.88184354-52.58324289-44.32100494-61.43564067z" fill="#534FFF" p-id="1636"></path><path d="M88.85538553 112.50931439l422.37740667-110.18284451c44.43903692-11.5671331 87.93381807 21.36378668 87.93381806 66.62904739v958.24255301H157.43196043c-66.62904738 0-120.62867392-53.17340273-120.62867393-118.74016239V179.13836176c-0.05901598-31.27847219 21.36378668-58.60287338 52.05209903-66.62904737z" fill="#0081C9" p-id="1637"></path><path d="M84.9603305 167.68926063l390.68582256-103.51403818c41.07512575-10.85894129 81.32402772 20.065435 81.32402773 62.61596037v900.40688746H148.34349869c-61.61268865 0-111.59922817-49.98653953-111.59922817-111.59922818V230.30522102c0-29.38996068 19.77035507-55.06191427 48.21605998-62.61596039z" fill="#249CFF" p-id="1638"></path><path d="M389.48281456 460.82165953H211.66765091c-25.67195359 0-46.4455804-25.49490565-46.44558042-57.00944178 0-31.45552016 20.77362681-57.00944177 46.44558042-57.00944179h177.81516365c25.67195359 0 46.4455804 25.49490565 46.44558041 57.00944179 0 31.45552016-20.77362681 57.00944177-46.44558041 57.00944178zM389.48281456 794.1439444H211.66765091c-25.67195359 0-46.4455804-25.49490565-46.44558042-57.00944178 0-31.45552016 20.77362681-57.00944177 46.44558042-57.00944178h177.81516365c25.67195359 0 46.4455804 25.49490565 46.44558041 57.00944178s-20.77362681 57.00944177-46.44558041 57.00944178z" fill="#0081C9" p-id="1639"></path><path d="M828.32568112 640.82041464h-145.94653161c-21.89493055 0-45.44230867-25.67195359-45.44230866-57.3635377s17.76381157-57.3635377 39.65874209-57.36353768h151.78911416c21.89493055 0 39.65874211 25.67195359 39.6587421 57.36353768s-17.88184354 57.3635377-39.71775808 57.3635377zM828.32568112 855.87466501h-145.94653161c-21.89493055 0-45.44230867-25.67195359-45.44230866-57.36353769s17.76381157-57.3635377 39.65874209-57.36353771h151.78911416c21.89493055 0 39.65874211 25.67195359 39.6587421 57.36353771s-17.88184354 57.3635377-39.71775808 57.36353769z" fill="#402AD2" p-id="1640"></path><path d="M389.48281456 427.47762785H211.66765091c-25.67195359 0-46.4455804-20.77362681-46.44558042-46.44558042s20.77362681-46.4455804 46.44558042-46.44558041h177.81516365c25.67195359 0 46.4455804 20.77362681 46.44558041 46.44558041 0 25.61293761-20.77362681 46.4455804-46.44558041 46.44558042zM389.48281456 756.4917458H211.66765091c-25.67195359 0-46.4455804-20.77362681-46.44558042-46.44558043s20.77362681-46.4455804 46.44558042-46.4455804h177.81516365c25.67195359 0 46.4455804 20.77362681 46.44558041 46.4455804s-20.77362681 46.4455804-46.44558041 46.44558043z" fill="#F6E937" p-id="1641"></path><path d="M821.47982681 611.25340601H686.09715658c-25.67195359 0-46.4455804-20.77362681-46.44558041-46.44558039s20.77362681-46.4455804 46.44558041-46.44558044h135.38267023c25.67195359 0 46.4455804 20.77362681 46.44558044 46.44558044s-20.77362681 46.4455804-46.44558044 46.44558039zM821.47982681 823.17980917H686.09715658c-25.67195359 0-46.4455804-20.77362681-46.44558041-46.44558043s20.77362681-46.4455804 46.44558041-46.44558041h135.38267023c25.67195359 0 46.4455804 20.77362681 46.44558044 46.44558041s-20.77362681 46.4455804-46.44558044 46.44558043z" fill="#FFFFFF" p-id="1642"></path></svg>