<?xml version="1.0" standalone="no"?><!DOCTYPE svg PUBLIC "-//W3C//DTD SVG 1.1//EN" "http://www.w3.org/Graphics/SVG/1.1/DTD/svg11.dtd"><svg t="1690886788041" class="icon" viewBox="0 0 1056 1024" version="1.1" xmlns="http://www.w3.org/2000/svg" p-id="3157" xmlns:xlink="http://www.w3.org/1999/xlink" width="206.25" height="200"><path d="M954.0288125 729.125c-49.5 25.875-306 131.34375-360.84375 159.75-54.5625 28.40625-84.9375 28.125-128.25 7.59375-43.03125-20.53125-316.125-130.78125-365.34375-154.40625-24.46875-11.8125-37.40625-21.65625-37.40625-30.9375v-93.9375s355.5-77.34375 412.875-97.875c57.375-20.53125 77.34375-21.375 126-3.375 48.9375 18 340.875 70.59375 389.25 88.3125v92.53125c0 9-11.25 19.125-36.28125 32.34375z" fill="#A41E11" p-id="3158"></path><path d="M954.0288125 635.46875c-49.5 25.875-306 131.34375-360.84375 159.75-54.5625 28.40625-84.9375 28.125-128.25 7.59375-43.03125-20.53125-316.125-131.0625-365.34375-154.40625-49.21875-23.625-50.34375-39.65625-1.96875-58.5 48.375-18.84375 319.78125-125.4375 377.15625-145.96875 57.375-20.53125 77.34375-21.375 126-3.375 48.9375 18 303.75 119.53125 352.125 136.96875 48.65625 17.4375 50.625 32.0625 1.125 57.9375z" fill="#D82C20" p-id="3159"></path><path d="M954.0288125 576.125c-49.5 25.875-306 131.34375-360.84375 159.75-54.5625 28.40625-84.9375 28.125-128.25 7.59375-43.03125-20.53125-316.125-130.78125-365.34375-154.40625-24.46875-11.8125-37.40625-21.65625-37.40625-30.9375V464.1875s355.5-77.34375 412.875-97.875c57.375-20.53125 77.34375-21.375 126-3.375 48.9375 18 340.875 70.59375 389.25 88.3125v92.53125c0 9-11.25 19.40625-36.28125 32.34375z" fill="#A41E11" p-id="3160"></path><path d="M954.0288125 482.46875c-49.5 25.875-306 131.34375-360.84375 159.75-54.5625 28.40625-84.9375 28.125-128.25 7.59375-43.03125-20.53125-316.125-131.0625-365.34375-154.40625-49.21875-23.625-50.34375-39.65625-1.96875-58.5 48.375-18.84375 319.78125-125.4375 377.15625-145.96875 57.375-20.53125 77.34375-21.375 126-3.375 48.9375 18 303.75 119.53125 352.125 136.96875 48.65625 17.4375 50.625 32.0625 1.125 57.9375z" fill="#D82C20" p-id="3161"></path><path d="M954.0288125 417.5c-49.5 25.875-306 131.34375-360.84375 159.75-54.5625 28.40625-84.9375 28.125-128.25 7.59375-43.03125-20.53125-316.125-131.0625-365.34375-154.40625C75.1225625 418.625 62.1850625 408.78125 62.1850625 399.5V305.5625s355.5-77.34375 412.875-97.875c57.375-20.53125 77.34375-21.375 126-3.375C649.9975625 222.03125 941.9350625 274.90625 990.3100625 292.34375v92.53125c0 9.28125-11.25 19.40625-36.28125 32.625z" fill="#A41E11" p-id="3162"></path><path d="M954.0288125 323.5625c-49.5 25.875-306 131.34375-360.84375 159.75-54.5625 28.40625-84.9375 28.125-128.25 7.59375S148.8100625 360.125 99.5913125 336.5c-49.21875-23.625-50.34375-39.65625-1.96875-58.5 48.375-18.84375 319.78125-125.4375 377.15625-145.96875 57.375-20.53125 77.34375-21.375 126-3.375C649.9975625 146.375 905.0913125 247.90625 953.4663125 265.625c48.09375 17.71875 50.0625 32.34375 0.5625 57.9375z" fill="#D82C20" p-id="3163"></path><path d="M647.7475625 233.28125l-80.4375 8.4375-18 43.3125-28.96875-48.375-92.8125-8.4375 69.1875-24.75-20.8125-38.53125 64.96875 25.3125 61.03125-19.96875-16.3125 39.65625zM544.5288125 443.375l-149.90625-62.15625 214.875-32.90625z" fill="#FFFFFF" p-id="3164"></path><path d="M221.6538125 301.90625a115.03125 44.4375 0 1 0 230.0625 0 115.03125 44.4375 0 1 0-230.0625 0Z" fill="#FFFFFF" p-id="3165"></path><path d="M742.8100625 245.09375l127.40625 50.34375-127.125 50.34375z" fill="#7A0C00" p-id="3166"></path><path d="M602.1850625 300.78125l140.625-55.6875 0.28125 100.6875-13.78125 5.34375z" fill="#AD2115" p-id="3167"></path></svg>