<?xml version="1.0" standalone="no"?><!DOCTYPE svg PUBLIC "-//W3C//DTD SVG 1.1//EN" "http://www.w3.org/Graphics/SVG/1.1/DTD/svg11.dtd"><svg t="1691002008271" class="icon" viewBox="0 0 1024 1024" version="1.1" xmlns="http://www.w3.org/2000/svg" p-id="3307" xmlns:xlink="http://www.w3.org/1999/xlink" width="200" height="200"><path d="M551.9847619 520.49850381l-3.20435333 1.88081618c-17.41496571 7.52326572-27.16734667 23.26639429-25.21687142 40.89034001v359.93251714a34.82993238 34.82993238 0 0 1-34.82993144 34.82993143H395.87700667a34.82993238 34.82993238 0 0 1-34.82993143-34.82993143v-45.00027238H231.41006762a34.82993238 34.82993238 0 0 1-34.82993143-34.82993238v-93.76217619a34.82993238 34.82993238 0 0 1 34.82993143-34.82993238h129.63700762V543.76489809c0-3.76163239-6.47836761-9.4040819-12.88707524-14.48925142L345.51292476 528.02176857a57.05142857 57.05142857 0 0 1-6.47836667-3.76163238 243.87918381 243.87918381 0 0 1-138.62312952-266.58829904A251.05414953 251.05414953 0 0 1 419.70067999 53.35945619a248.75537428 248.75537428 0 0 1 254.11918382 161.61088381c42.56217714 119.46666667-9.0557819 252.09904762-121.9047619 305.52816381z m-165.79047619-277.94285714c-25.14721047 23.33605429-31.6255781 58.51428571-19.36544191 89.30394476 11.63319715 31.48625809 43.18911524 50.2944219 74.18775525 50.29442191A83.59183715 83.59183715 0 0 0 524.88707524 302.32380952c0-34.55129238-18.73850381-62.83319715-49.04054476-76.62585047l-1.95047619-0.6965981c-28.97850381-13.79265334-64.50503429-6.26938762-87.70176858 17.62394476z" fill="#044cf4" p-id="3308"></path><path d="M605.48353715 59.07156476c113.5455781-27.09768666 230.29551047 37.68598667 270.97687142 152.13714286l1.25387714 3.76163238c43.18911524 120.72054381-7.73224476 255.23374191-118.00380952 307.40897999a38.24326572 38.24326572 0 0 0-24.52027238 39.63646191v361.18639524a34.82993238 34.82993238 0 0 1-34.82993142 34.82993143h-33.57605429a34.82993238 34.82993238 0 0 1-34.82993239-34.82993143V563.26966a36.91972762 36.91972762 0 0 1 22.5697962-40.89034001c90.34884381-44.58231334 144.4745581-143.98693904 133.53795904-248.96435427C776.4288438 167.88027238 702.93768666 82.26829905 605.55319715 59.07156476z" fill="#409EFF" fill-opacity=".3" p-id="3309"></path></svg>