<?xml version="1.0" standalone="no"?><!DOCTYPE svg PUBLIC "-//W3C//DTD SVG 1.1//EN" "http://www.w3.org/Graphics/SVG/1.1/DTD/svg11.dtd"><svg t="1690884435838" class="icon" viewBox="0 0 1024 1024" version="1.1" xmlns="http://www.w3.org/2000/svg" p-id="3064" xmlns:xlink="http://www.w3.org/1999/xlink" width="200" height="200"><path d="M577.36170213 609.1935787v-21.78723372c0-11.98297838-9.80425532-21.7872337-21.7872337-21.78723369h-87.14893686c-11.98297838 0-21.7872337 9.80425532-21.7872337 21.78723369v21.78723372c0 11.98297838 9.80425532 21.7872337 21.7872337 21.78723471h13.07234043l-33.98808511 126.80170213c-0.43574502 2.39659609 0 5.01106417 1.52510707 6.9719142l52.5072337 70.15489431a13.07234043 13.07234043 0 0 0 20.91574468 0l52.5072337-70.15489431c1.52510604-1.96085106 1.96085106-4.57531915 1.52510707-6.9719142L542.502128 630.98081341h13.07234043c11.98297838 0 21.7872337-9.80425532 21.7872337-21.78723471zM512 543.83187657c-107.84680851 0-196.08510638-88.23829787-196.08510638-196.08510639v-87.14893582c0-107.84680851 88.23829787-196.08510638 196.08510638-196.0851064s196.08510638 88.23829787 196.08510638 196.0851064v87.14893582c0 107.84680851-88.23829787 196.08510638-196.08510638 196.08510639z" fill="#044cf4" p-id="3065"></path><path d="M778.67574468 587.40634498l-49.67489362-10.89361735c-9.1506383-1.96085106-18.73702162 2.17872306-23.31234076 10.45787234l-180.18042485 322.66893651c-5.88255319 10.45787234-21.13361668 10.45787234-27.0161709 0l-184.97361702-331.16595778a21.19897838 21.19897838 0 0 0-23.31233974-10.45787235L201.74978689 587.40634498A130.63625566 130.63625566 0 0 0 98.04255353 715.29740916V870.6403872c0 48.14978757 38.99914928 87.14893583 87.14893583 87.14893685h610.04255285c48.14978757 0 87.14893583-38.99914928 87.14893685-87.14893685v-155.34297804c0-61.87574502-43.3565954-115.25446774-103.70723438-127.89106418z" fill="#000000" p-id="3066"></path></svg>