<?xml version="1.0" standalone="no"?><!DOCTYPE svg PUBLIC "-//W3C//DTD SVG 1.1//EN" "http://www.w3.org/Graphics/SVG/1.1/DTD/svg11.dtd"><svg t="1690885712932" class="icon" viewBox="0 0 1024 1024" version="1.1" xmlns="http://www.w3.org/2000/svg" p-id="3303" xmlns:xlink="http://www.w3.org/1999/xlink" width="200" height="200"><path d="M716.67999969 559.95999969a49.27999969 49.27999969 0 0 0 48.80000062-38.4 47.32000031 47.32000031 0 0 0-29.80000031-53.35999969 51.04000031 51.04000031 0 0 0-60.43999969 17.59999969 46.2 46.2 0 0 0 6.19999969 60.20000062 51.24 51.24 0 0 0 35.23999969 13.95999938z m-409.2-240a48 48 0 1 0-50.07999938-48 46.68 46.68 0 0 0 14.59999969 34.00000031 50.95999969 50.95999969 0 0 0 35.47999969 14.11999969z m0 384a50.20000031 50.20000031 0 0 0-46.47999938 29.4 46.51999969 46.51999969 0 0 0 10.68 52.40000062 51.72 51.72 0 0 0 54.63999938 10.51999969 48 48 0 0 0 31.00000031-44.35999969 46.68 46.68 0 0 0-14.47999969-33.92000062 50.92000031 50.92000031 0 0 0-35.36000062-14.07999938z" fill="#d4237a" p-id="3304"></path><path d="M824.874667 85.333333H199.125333A113.792 113.792 0 0 0 85.333333 199.125333v625.749334A113.792 113.792 0 0 0 199.125333 938.666667h625.749334A113.792 113.792 0 0 0 938.666667 824.874667V199.125333A113.792 113.792 0 0 0 824.874667 85.333333zM182.912 263.68a24.746667 24.746667 0 0 1 24.746667-10.24h23.04a93.013333 93.013333 0 0 1 180.053333 0h405.632V256a23.594667 23.594667 0 0 1 19.328 23.338667 24.192 24.192 0 0 1-19.328 23.594666H410.752a92.714667 92.714667 0 0 1-180.053333 0h-23.04a23.893333 23.893333 0 0 1-24.746667-36.693333z m0 235.52a24.192 24.192 0 0 1 24.746667-10.24h405.632a93.013333 93.013333 0 0 1 180.053333 0h22.741333a23.893333 23.893333 0 1 1 0 46.933333h-22.741333a92.714667 92.714667 0 0 1-180.053333 0H207.658667a23.893333 23.893333 0 0 1-24.746667-36.693333z m658.218667 261.12a24.746667 24.746667 0 0 1-24.746667 10.24H410.752a92.714667 92.714667 0 0 1-180.053333 0h-23.04a23.893333 23.893333 0 0 1-24.746667-36.693333 24.746667 24.746667 0 0 1 24.746667-10.24h23.04a93.013333 93.013333 0 0 1 180.053333 0h405.632a23.893333 23.893333 0 0 1 24.746667 36.693333z" fill="#044cf4" p-id="3305"></path></svg>