<?xml version="1.0" standalone="no"?><!DOCTYPE svg PUBLIC "-//W3C//DTD SVG 1.1//EN" "http://www.w3.org/Graphics/SVG/1.1/DTD/svg11.dtd"><svg t="1690884264526" class="icon" viewBox="0 0 1160 1024" version="1.1" xmlns="http://www.w3.org/2000/svg" p-id="2912" xmlns:xlink="http://www.w3.org/1999/xlink" width="226.5625" height="200"><path d="M652.99854285 554.19773683a244.9316798 244.9316798 0 0 0-56.42792154 67.02355787 325.93901283 325.93901283 0 0 0-101.64418289-16.07826165 323.10529682 323.10529682 0 0 0-230.39348181 95.66873668 324.76856526 324.76856526 0 0 0-95.29912147 222.38515196 8.74756029 8.74756029 0 0 1-8.68595744 8.439547H95.31079303a8.68595744 8.68595744 0 0 1-8.68595744-8.93236699 406.57673155 406.57673155 0 0 1 32.03331856-150.31018591 406.45352678 406.45352678 0 0 1 87.47559921-130.04295124A405.52948877 405.52948877 0 0 1 335.9918979 554.62895398c0.43121805-0.24641043 0.86243518-0.30801236 1.23205042-0.55442282A269.81910366 269.81910366 0 0 1 225.66175757 335.2007246 269.51109129 269.51109129 0 0 1 494.92643842 65.25841527a269.63429606 269.63429606 0 0 1 269.38788562 269.94230933A270.00391127 270.00391127 0 0 1 652.62892763 554.07453116l0.30801328 0.12320567zM494.98804036 522.47243067c49.89805343 0 96.71598039-19.46640138 132.13743775-54.82625593a186.34766893 186.34766893 0 0 0 54.70305116-132.38384819c0-49.89805343-19.46640138-96.96238993-54.70305116-132.32224536a185.48523284 185.48523284 0 0 0-132.13743775-54.82625593c-49.95965625 0-96.90078799 19.40479855-132.13743775 54.82625592a186.34766893 186.34766893 0 0 0-54.7646531 132.32224537c0 49.95965625 19.52800332 96.96238993 54.7646531 132.32224536 35.35985543 35.42145737 82.30098716 54.82625592 132.13743775 54.82625681z" fill="#044cf4" p-id="2913"></path><path d="M1051.01252263 750.70982314a43.30658247 43.30658247 0 0 1 13.55255711 48.91241345l-0.61602475 1.41685802c-9.24038027 24.33300106-22.8545402 46.75632413-40.65767315 66.59234074l-0.61602566 0.67762758a45.27786329 45.27786329 0 0 1-48.11158018 12.62851998l-20.63684897-6.89948423a185.17722046 185.17722046 0 0 1-21.37607937 11.70448197l-3.69615209 18.78877289a44.35382526 44.35382526 0 0 1-36.09908587 35.113445l-1.29365324 0.18480761a236.98495276 236.98495276 0 0 1-79.83688547 0l-1.10884563-0.18480761a44.35382526 44.35382526 0 0 1-36.22229062-35.113445l-3.69615211-18.97358049a185.17722046 185.17722046 0 0 1-21.068067-11.64287915l-21.00646417 7.08429096a45.27786329 45.27786329 0 0 1-47.80356782-12.4437115L679.73404368 867.56983249a212.65195081 212.65195081 0 0 1-40.65767316-66.90035309l-0.30801329-0.80083325a43.55299202 43.55299202 0 0 1 13.4909552-49.28202777l15.77024928-12.75172476a172.79511091 172.79511091 0 0 1 0-20.45204135l-15.89345405-12.8133276a43.49139007 43.49139007 0 0 1-13.55255802-48.97401538l0.61602566-1.416858c9.24038027-24.33300106 22.8545402-46.75632413 40.65767315-66.65394357l0.61602564-0.61602475A45.27786329 45.27786329 0 0 1 728.64645624 574.21856014l20.94486222 7.02268898c6.71467662-4.31217776 13.73736563-8.19313747 20.94486133-11.58127628l3.75775495-18.9735805a44.35382526 44.35382526 0 0 1 36.16068778-35.113445l1.29365325-0.24641045a238.771426 238.771426 0 0 1 79.83688546 0l1.10884562 0.24641045a44.35382526 44.35382526 0 0 1 36.22229064 35.05184214l3.6961521 18.7887729c7.33070136 3.44974167 14.47659604 7.39230421 21.31447744 11.76608483l20.76005462-7.02268899a45.27786329 45.27786329 0 0 1 47.80356693 12.5053143l0.92403803 0.98564086c17.67992727 19.71281092 31.35569006 42.136134 40.65767315 66.9003531l0.30801238 0.73923043a43.55299202 43.55299202 0 0 1-13.49095519 49.3436306l-15.40063317 12.44371148a170.02299683 170.02299683 0 0 1 0 21.12966983l15.52383885 12.50531432z m-81.43855198 13.36775043l3.08012735-17.86473488a109.83732036 109.83732036 0 0 0 0-37.20793149l-3.08012735-17.80313295 14.045378-11.33486584 18.17274815-14.7230065a149.81736503 149.81736503 0 0 0-18.04954248-28.95319118l-40.65767316 13.61415995-12.99813521-10.10281546a125.05314591 125.05314591 0 0 0-34.92863738-19.09678617l-16.50947972-5.91384337-3.38813882-17.24870921-4.43538251-22.79293829a178.09292863 178.09292863 0 0 0-38.43998191 0l-7.88512508 40.16485318-16.44787687 5.91384336a124.80673639 124.80673639 0 0 0-34.62062411 19.03518335l-13.05973806 10.16441828-15.6470436-5.29781861-25.25703908-8.50114984a150.92621065 150.92621065 0 0 0-18.04954339 28.95319207l32.64934421 26.36588474-3.1417293 17.86473486a106.81879584 106.81879584 0 0 0 0 36.5303039l3.08012646 17.86473488-14.10698085 11.39646869-18.48076052 14.96941603c4.92820249 10.28762306 10.90364871 19.95922137 18.04954339 28.9531921l40.90408268-13.73736563 13.05973806 10.16441827c10.47243067 8.13153462 22.1153098 14.53819798 34.49741933 18.97358051l16.63268448 5.91384337 3.32653689 17.24871013 4.49698536 22.9777459a175.87523736 175.87523736 0 0 0 38.43998191 0l7.82352133-40.04164841 16.50947972-5.91384336c12.75172476-4.5585873 24.45620673-10.90364871 34.86703454-19.09678528l13.05973805-10.1644183 15.70864645 5.2978177 24.94902671 8.3779451a150.92621065 150.92621065 0 0 0 17.98793965-28.9531921l-32.15652332-25.9962695z" fill="#d81e06" p-id="2914"></path><path d="M851.60511656 727.60887249m-79.22086072 0a79.22085981 79.22085981 0 1 0 158.44172053 0 79.22085981 79.22085981 0 1 0-158.44172053 0Z" fill="#f8b427" p-id="2915"></path></svg>