<?xml version="1.0" standalone="no"?><!DOCTYPE svg PUBLIC "-//W3C//DTD SVG 1.1//EN" "http://www.w3.org/Graphics/SVG/1.1/DTD/svg11.dtd"><svg t="1690885789298" class="icon" viewBox="0 0 1024 1024" version="1.1" xmlns="http://www.w3.org/2000/svg" p-id="3615" xmlns:xlink="http://www.w3.org/1999/xlink" width="200" height="200"><path d="M512 691.45102721m-266.75152674 0a266.75152674 266.75152674 0 1 0 533.50305348 0 266.75152674 266.75152674 0 1 0-533.50305348 0Z" fill="#f8b427" p-id="3616"></path><path d="M512 308.29883442c-41.22523628 0-72.75041628-31.52518001-72.75041628-72.75041628v-97.00055467c0-41.22523628 31.52518001-72.75041628 72.75041628-72.75041629s72.75041628 31.52518001 72.75041628 72.75041629v97.00055467c0 38.80022165-31.52518001 72.75041628-72.75041628 72.75041628z" fill="#d81e06" p-id="3617"></path><path d="M788.45158186 803.00166512H235.54841814c-48.5002779 0-87.30049953-38.80022165-87.30049954-87.30049954v-208.55119371c0-201.27615208 162.47592932-363.7520814 363.7520814-363.75208141s363.7520814 162.47592932 363.7520814 363.75208141v208.55119371c0 48.5002779-38.80022165 87.30049953-87.30049954 87.30049954z" fill="#044cf4" p-id="3618"></path><path d="M875.7520814 803.00166512H148.2479186c-41.22523628 0-72.75041628-31.52518001-72.75041629-72.75041628s31.52518001-72.75041628 72.75041629-72.75041628h727.5041628c41.22523628 0 72.75041628 31.52518001 72.75041629 72.75041628s-31.52518001 72.75041628-72.75041629 72.75041628z" fill="#409EFF" p-id="3619"></path></svg>