<?xml version="1.0" standalone="no"?><!DOCTYPE svg PUBLIC "-//W3C//DTD SVG 1.1//EN" "http://www.w3.org/Graphics/SVG/1.1/DTD/svg11.dtd"><svg t="1690886018201" class="icon" viewBox="0 0 1024 1024" version="1.1" xmlns="http://www.w3.org/2000/svg" p-id="3067" xmlns:xlink="http://www.w3.org/1999/xlink" width="200" height="200"><path d="M107.1297186 545.47481126h75.48881263a10.25888813 10.25888813 0 0 1 10.2885381 10.25888812v11.35593685a10.25888813 10.25888813 0 0 1-10.2885381 10.19958821H107.1297186a10.25888813 10.25888813 0 0 1-10.22923816-10.22923816v-11.29663693a10.28853809 10.28853809 0 0 1 10.28853809-10.25888813l-0.05929993-0.02964996z m0-318.11448181h75.48881263a10.25888813 10.25888813 0 0 1 10.2885381 10.25888812v11.38558683a10.25888813 10.25888813 0 0 1-10.2885381 10.22923815H107.1297186a10.25888813 10.25888813 0 0 1-10.22923816-10.22923815v-11.38558683c0-5.64831847 4.58091969-10.22923816 10.22923816-10.25888812z m0 159.10171585h75.48881263a10.25888813 10.25888813 0 0 1 10.2885381 10.22923816V408.22512011a10.25888813 10.25888813 0 0 1-10.2885381 10.22923816H107.1297186A10.25888813 10.25888813 0 0 1 96.90048044 408.22512011v-11.50418669a10.25888813 10.25888813 0 0 1 10.28853809-10.22923816l-0.05929993-0.02964996z m0 317.99588195h75.48881263a10.25888813 10.25888813 0 0 1 10.2885381 10.22923816v11.38558682a10.25888813 10.25888813 0 0 1-10.2885381 10.25888813H107.1297186A10.28853809 10.28853809 0 0 1 96.90048044 726.07275223v-11.32628688a10.25888813 10.25888813 0 0 1 10.28853809-10.22923817l-0.05929993-0.05929993z m699.73919011-574.61633493a8.00549074 8.00549074 0 0 1-8.00549073-7.0863418 63.86602608 63.86602608 0 0 0-63.62882635-56.45353467h-535.92312972A72.16801647 72.16801647 0 0 0 148.37282087 87.2642416a71.33781743 71.33781743 0 0 0-21.11077557 50.64214138v47.43994509a8.0351407 8.0351407 0 0 0 8.06479067 8.0351407h47.79574468a40.23500343 40.23500343 0 0 1 28.37501716 11.65243651c7.56074125 7.44214138 11.83033631 17.59725463 11.85998627 28.19711737V257.01029513a31.99231297 31.99231297 0 0 1-32.02196294 31.84406314H135.44543582a8.0351407 8.0351407 0 0 0-8.12409059 8.0351407v47.43994509a8.0351407 8.0351407 0 0 0 8.06479066 8.03514071h47.73644476a40.23500343 40.23500343 0 0 1 40.20535345 39.87920384V408.22512011a40.23500343 40.23500343 0 0 1-40.20535345 39.87920385H135.44543582a8.0351407 8.0351407 0 0 0-8.06479066 8.0351407v47.43994508c0.01482499 4.44749485 3.61729582 8.0351407 8.06479066 8.03514072h47.7067948a39.99780371 39.99780371 0 0 1 40.11640356 39.87920383v23.71997254a31.99231297 31.99231297 0 0 1-32.02196294 31.84406315H135.44543582a8.0351407 8.0351407 0 0 0-8.06479066 8.03514069v47.61784489c0.01482499 4.44749485 3.61729582 8.0351407 8.06479066 8.03514071h47.7067948a39.99780371 39.99780371 0 0 1 40.11640356 39.9088538V734.37474262a32.02196294 32.02196294 0 0 1-32.02196294 31.84406315H135.44543582a7.97584077 7.97584077 0 0 0-8.09444062 8.06479066V885.58956761c0 19.02045298 7.59039121 37.2403569 21.08112559 50.64214138a72.25696637 72.25696637 0 0 0 50.93864105 20.96252574H855.05010296a72.25696637 72.25696637 0 0 0 50.93864103-20.96252574A71.39711737 71.39711737 0 0 0 927.09951956 885.58956761V193.47041866a63.80672615 63.80672615 0 0 0-63.95497598-63.56952642l-56.27563487-0.05929992zM440.00988332 728.97844887L342.9951956 764.76595745a8.06479067 8.06479067 0 0 1-10.85188743-6.84914207l-7.76829101-94.02004119a8.09444062 8.09444062 0 0 1 11.97858614-7.67934111l104.75332875 58.20288265a8.00549074 8.00549074 0 0 1-1.12669869 14.52848318l0.02964996 0.02964996z m423.1050103 132.56499656c0 35.0759094-1.98654771 63.56952642-63.92532601 63.56952643h-575.95058339A63.95497598 63.95497598 0 0 1 159.99560742 870.76458477a8.1240906 8.1240906 0 0 1 8.06479066-9.2507893h558.99080301a72.22731641 72.22731641 0 0 0 50.93864106-20.96252574 71.39711737 71.39711737 0 0 0 21.08112559-50.64214138V169.89869594a8.06479067 8.06479067 0 0 1 8.18339053-8.03514068c31.42896363 0.32614962 55.77158545 4.65504461 55.77158545 63.53987645v636.11036376l0.0889499 0.02964996z" fill="#044cf4" p-id="3068"></path><path d="M107.1297186 545.47481126h75.48881263a10.25888813 10.25888813 0 0 1 10.2885381 10.25888812v11.35593685a10.25888813 10.25888813 0 0 1-10.2885381 10.19958821H107.1297186a10.25888813 10.25888813 0 0 1-10.22923816-10.22923816v-11.29663693a10.28853809 10.28853809 0 0 1 10.28853809-10.25888813l-0.05929993-0.02964996z m0-318.11448181h75.48881263a10.25888813 10.25888813 0 0 1 10.2885381 10.25888812v11.38558683a10.25888813 10.25888813 0 0 1-10.2885381 10.22923815H107.1297186a10.25888813 10.25888813 0 0 1-10.22923816-10.22923815v-11.38558683c0-5.64831847 4.58091969-10.22923816 10.22923816-10.25888812z m0 159.10171585h75.48881263a10.25888813 10.25888813 0 0 1 10.2885381 10.22923816V408.22512011a10.25888813 10.25888813 0 0 1-10.2885381 10.22923816H107.1297186A10.25888813 10.25888813 0 0 1 96.90048044 408.22512011v-11.50418669a10.25888813 10.25888813 0 0 1 10.28853809-10.22923816l-0.05929993-0.02964996z m0 317.99588195h75.48881263a10.25888813 10.25888813 0 0 1 10.2885381 10.22923816v11.38558682a10.25888813 10.25888813 0 0 1-10.2885381 10.25888813H107.1297186A10.28853809 10.28853809 0 0 1 96.90048044 726.07275223v-11.32628688a10.25888813 10.25888813 0 0 1 10.28853809-10.22923817l-0.05929993-0.05929993z m477.83884695-495.4212766a37.2403569 37.2403569 0 0 1 44.80109814-11.68208647l76.37831161 42.51805078a34.51256006 34.51256006 0 0 1 12.09718599 43.31859987l-241.35072066 405.46328071a8.09444062 8.09444062 0 0 1-10.88153741 2.96499656l-119.16321208-66.29732327a8.00549074 8.00549074 0 0 1-2.96499657-11.08908715l241.08387098-405.19643103z m-144.95868223 519.94179822L342.9951956 764.76595745a8.06479067 8.06479067 0 0 1-10.85188743-6.84914207l-7.76829101-94.02004119a8.09444062 8.09444062 0 0 1 11.97858614-7.67934111l104.75332875 58.20288265a8.00549074 8.00549074 0 0 1-1.12669869 14.52848318l0.02964996 0.02964996z" fill="#f8b427" p-id="3069"></path></svg>