<?xml version="1.0" standalone="no"?><!DOCTYPE svg PUBLIC "-//W3C//DTD SVG 1.1//EN" "http://www.w3.org/Graphics/SVG/1.1/DTD/svg11.dtd"><svg t="1690887936360" class="icon" viewBox="0 0 1024 1024" version="1.1" xmlns="http://www.w3.org/2000/svg" p-id="3004" xmlns:xlink="http://www.w3.org/1999/xlink" width="200" height="200"><path d="M628.35857666 306.18677141H468.54964543c-28.44525331 0-51.73537981-23.2901265-51.73537981-51.73537981V247.63925975c0-28.44525331 23.2901265-51.73537981 51.73537981-51.73537981h159.80893123c28.44525331 0 51.73537981 23.2901265 51.7353798 51.73537981v6.81213185c0 28.44525331-23.2901265 51.73537981-51.7353798 51.73537981z" fill="#f4ea2a" p-id="3005"></path><path d="M858.0317503 285.22537186H167.93210754c-50.6675321 0-91.90854662 41.24101452-91.90854662 91.90854664v39.57173534c0 16.30002002 13.15784749 29.45786752 29.45786749 29.45786751s29.45786752-13.15784749 29.45786751-29.45786751v-39.57173534c0-18.16568495 14.82712664-32.99281161 32.99281162-32.99281162h690.19783565c18.16568495 0 32.99281161 14.82712664 32.99281161 32.99281162v42.51752209c0 16.30002002 13.15784749 29.45786752 29.45786751 29.45786751s29.45786752-13.15784749 29.45786751-29.45786751v-42.51752209c-0.09819289-50.76572501-41.3392074-91.90854662-92.00673952-91.90854664zM734.01412811 509.98890092c0 16.30002002 13.15784749 29.45786752 29.45786751 29.45786753H891.02456191v297.7208476c0 18.16568495-14.82712664 32.99281161-32.99281161 32.99281159H167.93210754c-18.16568495 0-32.99281161-14.82712664-32.99281162-32.99281159V539.44676845h125.68690135c16.30002002 0 29.45786752-13.15784749 29.45786752-29.45786753s-13.15784749-29.45786752-29.45786752-29.4578675H76.02356092v356.63658263c0 50.6675321 41.24101452 91.90854662 91.90854662 91.90854662h690.19783565c50.6675321 0 91.90854662-41.24101452 91.90854663-91.90854662V480.53103342h-186.5664942c-16.20182712 0-29.45786752 13.15784749-29.45786751 29.4578675z" fill="#044cf4" p-id="3006"></path><path d="M614.89567658 165.4765389c5.13919775 0 9.71978703 4.46886761 9.71978703 9.71978704v6.81502307c0 5.13919775-4.46886761 9.71978703-9.71978703 9.71978704H409.4394885c-5.13919775 0-9.71978703-4.46886761-9.71978705-9.71978704v-6.81502307c0-5.13919775 4.46886761-9.71978703 9.71978705-9.71978704h205.45618808m0-67.03301407H409.4394885c-42.23079885 0-76.7528011 34.52200224-76.75280112 76.75280111v6.81502307c0 42.23079885 34.52200224 76.7528011 76.75280112 76.75280111H614.7839549c42.23079885 0 76.7528011-34.52200224 76.75280108-76.75280111v-6.81502307c0-42.23079885-34.52200224-76.7528011-76.6410794-76.75280111z" fill="#f8b427" p-id="3007"></path><path d="M512.10473908 675.78505311c-35.0875933 0-77.82113977-21.99520773-100.13056475-35.19233241-14.45399365-8.48386587-28.17481373-17.80564435-38.64872215-26.28951019-13.51134189-10.89286478-25.87055387-23.25207676-25.87055389-40.32454752V462.11732078h326.68120446V573.97866299c0 16.75825353-12.04499471 29.11746546-25.13738029 40.01033026-13.30186373 11.10234295-33.20228977 9.32177852-44.19989363-4.08482429-11.10234295-13.30186373-9.32177852-33.20228977 4.08482429-44.19989363 0.94265175-0.7331736 1.78056444-1.46634719 2.51373805-2.0947817v-38.64872217H410.19360989v38.33450492c7.33173591 6.28434507 22.2046859 16.96773168 41.68615564 27.75585738 29.32694367 16.12981899 50.37949963 21.89046867 60.22497355 21.89046866 3.03743342 0 8.37912675-0.52369541 16.96773169-3.14217252 16.65351442-4.92273697 34.14494153 4.50378062 39.0676785 21.15729505 4.92273697 16.65351442-4.50378062 34.14494153-21.15729505 39.0676785-12.67342922 3.77060706-24.40420669 5.76064963-34.87811514 5.76064966z" fill="#d81e06" p-id="3008"></path></svg>