<?xml version="1.0" standalone="no"?><!DOCTYPE svg PUBLIC "-//W3C//DTD SVG 1.1//EN" "http://www.w3.org/Graphics/SVG/1.1/DTD/svg11.dtd"><svg t="1690885043816" class="icon" viewBox="0 0 1028 1024" version="1.1" xmlns="http://www.w3.org/2000/svg" p-id="3219" xmlns:xlink="http://www.w3.org/1999/xlink" width="200.78125" height="200"><path d="M954.33857278 632.23296769c1.48435791 7.42178784 1.48435791 16.32793359-1.4843579 28.20279518-1.48435791 10.39050368-4.45307288 22.26536439-8.90614576 32.65586719-4.45307288 10.39050368-10.39050368 20.78100647-16.3279336 29.68715309-5.93743078 8.90614575-13.35921862 14.84357655-20.78100734 19.29664856-7.42178784 4.45307288-14.84357655 5.93743078-19.29664855 5.93743081-5.93743078 0-11.87486072-1.48435791-19.29664942-4.45307289-5.93743078-1.48435791-14.84357655-2.96871496-23.7497223-5.93743079-8.90614575-1.48435791-19.29664942-1.48435791-29.68715224-1.48435704-10.39050368 1.48435791-19.29664942 2.96871496-29.68715223 5.93742991s-17.81229152 8.90614575-25.23408022 16.32793446c-14.84357655 16.32793359-23.7497223 34.1402251-26.71843725 54.92123159-2.96871496 20.78100647 0 40.0776559 8.90614574 57.88994741 5.93743078 13.35921862 5.93743078 25.23407935-2.96871495 38.59329884-4.45307288 4.45307288-10.39050368 10.39050368-17.81229152 16.3279336-8.90614575 5.93743078-17.81229152 10.39050368-26.71843726 14.84357655-10.39050368 4.45307288-20.78100647 7.42178784-31.17151015 10.3905028-10.39050368 2.96871496-20.78100647 4.45307288-28.20279517 4.45307287-5.93743078 0-10.39050368-1.48435791-16.32793359-5.93742991-4.45307288-4.45307288-8.90614575-8.90614575-10.39050367-14.84357656h-1.48435705c-7.42178784-19.29664942-19.29664942-37.10894092-35.62458303-50.46815955-16.32793359-14.84357655-37.10894092-20.78100647-59.37430532-20.78100648s-41.56201382 7.42178784-59.37430532 20.78100648c-17.81229152 14.84357655-29.68715224 31.17151014-37.10894008 50.46815955-2.96871496 7.42178784-7.42178784 13.35921862-14.84357654 16.3279336-5.93743078 2.96871496-13.35921862 5.93743078-20.78100647 5.93743079-8.90614575 0-19.29664942-1.48435791-29.6871531-4.45307287-11.87486072-2.96871496-22.26536439-7.42178784-34.1402251-11.87486072-10.39050368-4.45307288-20.78100647-10.39050368-29.68715223-16.32793448-8.90614575-5.93743078-14.84357655-13.35921862-19.29664943-19.29664856-2.96871496-4.45307288-4.45307288-10.39050368-5.93743079-16.32793445 0-5.93743078 1.48435791-14.84357655 7.4217887-25.23407934 7.42178784-14.84357655 10.39050368-31.17151014 7.42178784-50.46815957-1.48435791-19.29664942-10.39050368-35.62458302-23.7497223-51.95251662-8.90614575-8.90614575-19.29664942-16.32793359-32.65586718-19.29664943-13.35921862-2.96871496-25.23407935-4.45307288-35.62458303-2.96871495-13.35921862 0-26.71843726 2.96871496-41.5620138 7.42178784-8.90614575 2.96871496-17.81229152 1.48435791-26.71843727-1.48435705-5.93743078-4.45307288-13.35921862-10.39050368-19.29664942-19.29664943-5.93743078-8.90614575-11.87486072-19.29664942-16.3279336-31.17151014-4.45307288-10.39050368-8.90614575-22.26536439-10.39050366-34.14022511-2.96871496-11.87486072-2.96871496-20.78100647-1.48435705-29.68715309 1.48435791-13.35921862 8.90614575-22.26536439 19.29664855-26.71843726 19.29664942-7.42178784 35.62458302-20.78100647 51.95251747-37.10894008 14.84357655-17.81229152 22.26536439-37.10894092 22.26536439-59.37430532s-7.42178784-41.56201382-22.26536439-57.88994741-32.65586806-28.20279518-51.95251747-35.62458302c-5.93743078-1.48435791-10.39050368-5.93743078-14.84357568-13.35921863-4.45307288-7.42178784-5.93743078-14.84357655-5.93743079-22.26536438 0-8.90614575 1.48435791-17.81229152 4.45307287-28.20279519 2.96871496-10.39050368 5.93743078-20.78100647 10.39050368-29.68715222 4.45307288-8.90614575 8.90614575-17.81229152 14.84357568-26.71843727 5.93743078-7.42178784 11.87486072-13.35921862 17.81229151-17.81229152 4.45307288-2.96871496 10.39050368-4.45307288 14.84357653-4.45307286 4.45307288 0 10.39050368 1.48435791 16.32793361 4.45307286 19.29664942 7.42178784 38.59329799 10.39050368 59.37430532 7.42178785 20.78100647-2.96871496 38.59329799-11.87486072 54.92123244-26.71843727 7.42178784-7.42178784 13.35921862-16.32793359 16.32793359-28.2027943 2.96871496-10.39050368 5.93743078-22.26536439 5.93743081-32.65586807 1.48435791-10.39050368 1.48435791-20.78100647 0-29.68715222-1.48435791-8.90614575-1.48435791-14.84357655-2.96871584-19.29664944-1.48435791-4.45307288-2.96871496-8.90614575-2.96871497-13.35921862-1.48435791-4.45307288 0-8.90614575 1.48435792-13.35921863 2.96871496-8.90614575 10.39050368-16.32793359 19.29664857-23.7497223 10.39050368-5.93743078 20.78100647-11.87486072 32.65586805-16.3279336 11.87486072-4.45307288 22.26536439-7.42178784 34.14022511-10.39050366 10.39050368-1.48435791 17.81229152-2.96871496 25.2340802-2.96871497 8.90614575 0 14.84357655 2.96871496 19.29664856 7.42178783 4.45307288 5.93743078 7.42178784 10.39050368 10.39050368 16.32793447 7.42178784 17.81229152 17.81229152 32.65586806 34.14022511 46.01508582 16.32793359 13.35921862 34.1402251 19.29664942 56.40559036 19.29664942s41.56201382-5.93743078 59.37430446-19.29664942c17.81229152-11.87486072 29.68715224-28.20279518 35.62458302-47.49944373 2.96871496-4.45307288 5.93743078-10.39050368 11.87486158-16.3279336 5.93743078-2.96871496 10.39050368-5.93743078 16.32793359-5.93743079 8.90614575 0 19.29664942 1.48435791 29.68715223 4.45307287 10.39050368 2.96871496 20.78100647 5.93743078 31.17151014 10.39050368 10.39050368 4.45307288 19.29664942 10.39050368 28.20279518 17.81229152 8.90614575 7.42178784 14.84357655 14.84357655 20.78100647 22.26536437 2.96871496 4.45307288 4.45307288 10.39050368 2.96871584 16.32793359-1.48435791 5.93743078-2.96871496 10.39050368-4.45307288 13.35921864-8.90614575 17.81229152-10.39050368 38.59329799-7.4217887 57.88994741 2.96871496 20.78100647 11.87486072 38.59329799 28.20279517 53.43687453 14.84357655 14.84357655 34.1402251 23.7497223 56.4055895 25.23407934 22.26536439 1.48435791 43.04637086-1.48435791 62.34302028-10.3905028 4.45307288-2.96871496 11.87486072-4.45307288 19.29664942-4.45307288s13.35921862 2.96871496 19.29664943 8.90614577c8.90614575 8.90614575 17.81229152 22.26536439 25.23407935 40.07765589 7.42178784 17.81229152 11.87486072 37.10894092 14.84357654 54.92123159 1.48435791 10.39050368 0 19.29664942-5.93743078 25.2340802-4.45307288 5.93743078-10.39050368 10.39050368-14.84357655 11.87486072-19.29664942 7.42178784-37.10894092 19.29664942-50.4681587 37.10894093-13.35921862 17.81229152-20.78100647 37.10894092-20.78100733 59.37430447s5.93743078 40.0776559 17.8122915 56.40559035c11.87486072 16.32793359 26.71843726 28.20279518 46.01508668 34.14022512 4.45307288 2.96871496 8.90614575 4.45307288 11.87486072 7.42178784 4.45307288 7.42178784 8.90614575 14.84357655 11.87486158 23.74972229z m-443.82293069 84.60838467c28.20279518 0 54.92123244-5.93743078 81.63966971-16.32793359s47.49944375-25.23407935 66.79609316-44.53072878c19.29664942-19.29664942 34.1402251-41.56201382 44.53072877-66.79609315 10.39050368-25.23407935 16.32793359-51.95251661 16.3279336-80.1553118 0-28.20279518-5.93743078-54.92123244-16.3279336-80.15531181-10.39050368-25.23407935-25.23407935-47.49944375-44.53072877-65.3117361-19.29664942-19.29664942-41.56201382-34.1402251-66.79609316-44.53072878-25.23407935-10.39050368-51.95251661-16.32793359-81.63966971-16.32793359-28.20279518 0-54.92123244 5.93743078-80.1553118 16.32793359-25.23407935 10.39050368-47.49944375 25.23407935-65.31173525 44.53072878-19.29664942 19.29664942-34.1402251 40.0776559-44.53072877 65.3117361-10.39050368 25.23407935-16.32793359 51.95251661-16.3279336 80.15531181 0 28.20279518 5.93743078 54.92123244 16.3279336 80.1553118 10.39050368 25.23407935 25.23407935 47.49944375 44.53072877 66.79609315 19.29664942 19.29664942 40.0776559 34.1402251 65.31173525 44.53072878 25.23407935 11.87486072 51.95251661 16.32793359 80.1553118 16.32793359z" fill="#044cf4" p-id="3220"></path><path d="M512 509.66794014m-90.95031763 0a90.95031763 90.95031763 0 1 0 181.90063526 0 90.95031763 90.95031763 0 1 0-181.90063526 0Z" fill="#f8b427" p-id="3221"></path></svg>