<?xml version="1.0" standalone="no"?><!DOCTYPE svg PUBLIC "-//W3C//DTD SVG 1.1//EN" "http://www.w3.org/Graphics/SVG/1.1/DTD/svg11.dtd"><svg t="1684920840089" class="icon" viewBox="0 0 1024 1024" version="1.1" xmlns="http://www.w3.org/2000/svg" p-id="1927" xmlns:xlink="http://www.w3.org/1999/xlink" width="200" height="200"><path d="M434.64820632 47.88923779v38.67589687h348.08307164v116.02769054h193.37948425v773.51793701H86.56513466v-77.35179372H47.88923779V47.88923779h386.75896853z" fill="#FFFFFF" p-id="1928"></path><path d="M473.32410314 376.63436103l19.33794843 618.81434959h-232.05538109V395.97230946l212.71743266-19.33794843z" fill="#30AD98" p-id="1929"></path><path d="M473.32410314 357.2964126a38.67589686 38.67589686 0 0 1 38.67589686 38.67589686v618.81434958H241.26872204V395.97230946a38.67589686 38.67589686 0 0 1 38.67589688-38.67589686h193.37948422z m348.08307166 270.73127794a38.67589686 38.67589686 0 0 1 38.67589685 38.67589686v348.08307164h-270.73127797v-348.08307164a38.67589686 38.67589686 0 0 1 38.67589686-38.67589686h193.37948426z m-348.08307166-232.05538108h-193.37948422v580.13845275h193.37948422V395.97230946z m348.08307166 270.73127794h-193.37948426v309.40717481h193.37948426v-309.40717481z m0-309.4071748a38.67589686 38.67589686 0 0 1 38.67589685 38.67589686v116.02769054a38.67589686 38.67589686 0 0 1-38.67589685 38.67589686h-193.37948426a38.67589686 38.67589686 0 0 1-38.67589686-38.67589686v-116.02769054a38.67589686 38.67589686 0 0 1 38.67589686-38.67589686h193.37948426z m0 38.67589686h-193.37948426v116.02769054h193.37948426v-116.02769054z" fill="#f6922e" p-id="1930"></path><path d="M395.97230946 9.21334096a38.67589686 38.67589686 0 0 1 38.67589686 38.67589683v38.67589687h348.08307164a38.67589686 38.67589686 0 0 1 38.67589684 38.67589685v77.35179369h154.70358741a38.67589686 38.67589686 0 0 1 38.67589683 38.67589684v734.84204017a38.67589686 38.67589686 0 0 1-38.67589683 38.67589683H125.24103151a38.67589686 38.67589686 0 0 1-38.67589685-38.67589683v-77.35179372H47.88923779a38.67589686 38.67589686 0 0 1-38.67589683-38.67589684V47.88923779a38.67589686 38.67589686 0 0 1 38.67589683-38.67589683h348.08307167zM125.24103151 976.11076221h850.8697307V241.26872204H125.24103151v734.84204017z m270.73127795-773.51793701V47.88923779H47.88923779v812.19383386h38.67589687V241.26872204a38.67589686 38.67589686 0 0 1 38.67589685-38.67589684h270.73127795z m386.7589685-77.35179369h-348.08307164v77.35179369h348.08307164V125.24103151z" fill="#515151" p-id="1931"></path></svg>