<?xml version="1.0" standalone="no"?><!DOCTYPE svg PUBLIC "-//W3C//DTD SVG 1.1//EN" "http://www.w3.org/Graphics/SVG/1.1/DTD/svg11.dtd"><svg t="1677148730302" class="icon" viewBox="0 0 1280 1024" version="1.1" xmlns="http://www.w3.org/2000/svg" p-id="1165" xmlns:xlink="http://www.w3.org/1999/xlink" width="250" height="200"><path d="M245.07138655 850.71334969h265.09554726a31.84564148 31.84564148 0 0 1 0 63.6757485H213.48983088a31.81457257 31.81457257 0 0 1-32.04758946-31.61262459V277.72481991H149.73641008a32.04758945 32.04758945 0 0 1-31.96991716-31.96991716v-127.07187673a32.00098608 32.00098608 0 0 1 31.96991716-31.9543827h127.07187674c17.66268018 0 31.96991715 14.3383059 31.96991715 31.9543827v127.07187673a31.96991715 31.96991715 0 0 1-31.96991715 31.96991716h-31.72136581v233.43631929h265.09554726a31.83010702 31.83010702 0 0 1 0 63.66021405H245.07138655v275.89199644zM436.06756315 118.68302602c0-17.64714572 12.90913565-31.9543827 28.75428408-31.9543827H1188.21501155c15.8606829 0 28.72321517 14.3383059 28.72321517 31.9543827v127.07187673c0 17.66268018-12.87806672 31.96991715-28.72321517 31.96991716H464.82184723c-15.8606829 0-28.72321517-14.30723698-28.75428408-31.96991716v-127.07187673zM645.59634963 479.45530785c0-17.64714572 12.73825659-31.96991715 28.72321517-31.96991715H1188.21501155c15.8606829 0 28.72321517 14.35384035 28.72321517 31.96991715v127.07187674c0 17.66268018-12.72272213 31.96991715-28.72321517 31.96991716H674.30403035c-15.84514845-0.01553445-28.69214625-14.32277143-28.72321518-31.96991716v-127.07187674zM645.59634963 819.00751835c0-17.66268018 12.73825659-31.96991715 28.72321517-31.96991717H1188.21501155c15.8606829 0 28.72321517 14.35384035 28.72321517 31.96991717v127.0874112c0 17.64714572-12.72272213 31.9543827-28.72321517 31.95438268H674.30403035c-15.84514845-0.01553445-28.69214625-14.32277143-28.72321518-31.95438268v-127.0874112z" fill="#B3B3B3" p-id="1166"></path><path d="M287.73805321 809.96646305h265.09554726a31.84564148 31.84564148 0 1 1 0 63.6757485H256.15649754a31.83010702 31.83010702 0 0 1-32.04758946-31.62815905V236.96239882H192.40307674a32.03205499 32.03205499 0 0 1-31.96991716-31.9543827v-127.0874112a32.00098608 32.00098608 0 0 1 31.96991716-31.96991715h127.07187674c17.66268018 0 31.96991715 14.3383059 31.96991715 31.96991715v127.0874112a31.96991715 31.96991715 0 0 1-31.96991715 31.9543827h-31.72136581v233.43631928h265.09554726a31.84564148 31.84564148 0 0 1 0 63.67574851H287.73805321v275.89199644z" fill="#7710b1" p-id="1167"></path><path d="M414.73422982 77.93613938c0-17.64714572 12.90913565-31.96991715 28.75428408-31.96991716H1166.88167822c15.8606829 0 28.72321517 14.3383059 28.72321517 31.96991716v127.0874112c0 17.64714572-12.87806672 31.9543827-28.72321517 31.9543827H443.4885139c-15.8606829 0-28.72321517-14.30723698-28.75428408-31.9543827v-127.0874112zM624.2630163 438.70842122c0-17.64714572 12.73825659-31.96991715 28.72321517-31.96991717H1166.88167822c15.8606829 0 28.72321517 14.3383059 28.72321517 31.96991717v127.0874112c0 17.64714572-12.72272213 31.9543827-28.72321517 31.95438269H652.97069702c-15.84514845-0.01553445-28.69214625-14.32277143-28.72321518-31.95438269v-127.0874112zM624.2630163 778.2606317c0-17.64714572 12.73825659-31.96991715 28.72321517-31.96991715H1166.88167822c15.8606829 0 28.72321517 14.35384035 28.72321517 31.96991715v127.0874112c0 17.66268018-12.72272213 31.9543827-28.72321517 31.9543827H652.97069702c-15.84514845-0.01553445-28.69214625-14.30723698-28.72321518-31.9543827V778.2606317z" fill="#bfbfbf" p-id="1168"></path></svg>