<?xml version="1.0" standalone="no"?><!DOCTYPE svg PUBLIC "-//W3C//DTD SVG 1.1//EN" "http://www.w3.org/Graphics/SVG/1.1/DTD/svg11.dtd"><svg t="1678375679547" class="icon" viewBox="0 0 1024 1024" version="1.1" xmlns="http://www.w3.org/2000/svg" p-id="1311" xmlns:xlink="http://www.w3.org/1999/xlink" width="200" height="200"><path d="M816.882257 124.227368c-168.367158-165.618526-441.397895-165.618526-609.765053 0a419.301053 419.301053 0 0 0 0 599.848421L511.999731 1024l304.882526-299.924211a419.301053 419.301053 0 0 0 0-599.848421z" fill="#5f4dbf" p-id="1312"></path><path d="M283.324362 679.450947A338.782316 338.782316 0 0 1 188.631309 442.637474c0-89.465263 33.630316-173.541053 94.693053-236.759579C344.440994 142.605474 425.606467 107.789474 511.999731 107.789474c86.393263 0 167.612632 34.816 228.675368 98.088421A338.782316 338.782316 0 0 1 835.368152 442.637474c0 89.465263-33.630316 173.541053-94.693053 236.813473L511.999731 916.210526l-228.675369-236.759579z" fill="#a495f3" p-id="1313"></path><path d="M511.999731 431.157895m-323.368422 0a323.368421 323.368421 0 1 0 646.736843 0 323.368421 323.368421 0 1 0-646.736843 0Z" fill="#FFFFFF" p-id="1314"></path><path d="M753.41745379 573.93954475a276.86085632 276.86085632 0 0 0-118.5320118-113.5037531 178.44188046 178.44188046 0 0 0-64.2636049-297.03521394A175.74379065 175.74379065 0 0 0 511.99969394 153.4053797a178.25792 178.25792 0 0 0-122.82442866 307.09173134 276.30897379 276.30897379 0 0 0-118.59333234 113.5037531L266.71875755 580.93005142c15.20741831 23.54696989 33.66480896 44.76377088 54.75896888 63.03719992l17.59890774-31.88652145A197.88039509 197.88039509 0 0 1 511.99969394 510.1051813c71.74467357 0 137.97052643 39.06098859 172.92305863 102.09818852l17.66022826 31.76388152c21.09415993-18.27343019 39.55155058-39.49023118 54.69764836-63.03719992l-3.8631754-6.92918728zM511.99969394 431.43132046a99.6453797 99.6453797 0 1 1 33.11292529-193.7719387 99.95198123 99.95198123 0 0 1 65.30604943 108.41417387A99.70670023 99.70670023 0 0 1 511.99969394 431.43132046z" fill="#1296db" p-id="1315"></path></svg>