<?xml version="1.0" standalone="no"?><!DOCTYPE svg PUBLIC "-//W3C//DTD SVG 1.1//EN" "http://www.w3.org/Graphics/SVG/1.1/DTD/svg11.dtd"><svg t="1691412942160" class="icon" viewBox="0 0 1024 1024" version="1.1" xmlns="http://www.w3.org/2000/svg" p-id="3837" xmlns:xlink="http://www.w3.org/1999/xlink" width="200" height="200"><path d="M519.1637782 512.81975545m-2.26799008 0a2.26799007 2.26799007 0 1 0 4.53598012 0 2.26799007 2.26799007 0 1 0-4.53598012 0Z" fill="#333333" p-id="3838"></path><path d="M512 953.00000031c-80.325 0-118.125-140.17499969-133.87500031-223.65000031l-4.725-29.92500031 29.92500031 1.57500031c72.45000031 4.725 144.89999969 4.725 217.35 0l29.92500031-1.57500031-4.725 29.92500031C630.125 812.82499969 592.325 953.00000031 512 953.00000031z m-80.325-203.175c25.20000031 113.4 61.425 155.925 80.325 155.925s56.7-42.525 80.325-155.925c-53.55000031 3.14999969-107.09999969 3.14999969-160.65 0zM650.60000031 324.57500031l-29.92500031-1.57500031c-72.45000031-4.725-144.89999969-4.725-217.35 0l-29.92500031 1.57500031 4.725-29.92500031C393.875 211.17500031 431.675 70.99999969 512 70.99999969s118.125 140.17499969 133.87500031 223.65000031l4.725 29.92500031zM512 118.24999969c-20.47500031 0-56.7 42.525-80.325 155.925 53.55000031-3.14999969 108.675-3.14999969 162.22500031 0C568.7 160.77499969 532.47500031 118.24999969 512 118.24999969z" fill="#044cf4" p-id="3839"></path><path d="M512 953.00000031c-122.85 0-234.67499969-92.92499969-289.80000031-240.975l-14.175-39.37500031 40.95000062 7.87499969c160.65 31.49999969 365.40000031 31.49999969 527.62499969 0l40.94999969-7.87499969-14.175 39.37500031C746.67499969 860.07499969 634.85 953.00000031 512 953.00000031zM282.05000031 735.65000031C334.02500031 841.17499969 419.07500031 905.75000031 512 905.75000031s177.97499969-64.57499969 229.94999969-170.1c-144.89999969 22.04999969-314.99999969 22.04999969-459.89999938 0zM817.54999969 351.35l-40.94999969-7.87499969c-160.65-31.49999969-365.40000031-31.49999969-527.62499969 0l-40.95000062 7.87499969 14.175-39.37500031C277.32500031 163.92500031 389.15 70.99999969 512 70.99999969c122.85 0 234.67499969 92.92499969 289.80000031 240.975l15.74999938 39.37500031zM512 118.24999969c-92.92499969 0-177.97499969 64.57499969-229.94999969 170.1 144.89999969-23.625 313.42500031-23.625 458.325 0C689.97499969 182.82500031 604.92499969 118.24999969 512 118.24999969z" fill="#044cf4" p-id="3840"></path><path d="M512 953.00000031C334.02500031 953.00000031 173.37500031 845.89999969 105.65 682.1l-20.47500031-48.82500031L134 650.60000031c103.95 34.65000031 237.82500031 55.12499969 378 55.12499969s274.05-18.9 378-55.12499969l50.39999969-17.32500062-20.47499938 48.82500031C850.62499969 845.89999969 689.97499969 953.00000031 512 953.00000031zM171.8 712.02500031C242.675 831.72499969 370.25 905.75000031 512 905.75000031c141.75 0 269.325-74.02499969 340.2-193.725-99.225 26.77499969-217.35 40.94999969-340.2 40.94999969s-240.975-14.175-340.2-40.94999969zM938.82500031 390.72500031L890 373.39999969c-103.95-34.65000031-237.82500031-55.12499969-378-55.12499969s-274.05 18.9-378 55.12499969l-50.39999969 17.32500062 20.47499938-48.82500031C173.37500031 178.10000031 334.02500031 70.99999969 512 70.99999969c177.97499969 0 338.62499969 107.09999969 406.35 270.90000031l20.47500031 48.82500031zM512 118.24999969C370.25 118.24999969 242.675 192.27500031 171.8 311.97499969c99.225-26.77499969 217.35-40.94999969 340.2-40.94999969s240.975 14.175 340.2 40.94999969C781.325 192.27500031 653.75 118.24999969 512 118.24999969z" fill="#044cf4" p-id="3841"></path><path d="M134 411.19999969h42.525l59.84999969 110.25000031 20.47500031 44.10000031h1.57500031c-1.57500031-22.04999969-4.725-48.82500031-4.725-72.45000031v-81.90000031H291.50000031v206.32500062h-42.525l-59.85000062-110.25000031-20.47499938-44.10000031h-1.57500031c1.57500031 22.04999969 4.725 48.82500031 4.725 72.45000031v81.90000031H134V411.19999969zM341.9 411.19999969h125.99999969v34.65000031h-85.05v47.25h72.45000031V527.75000031h-72.45000031v55.12499969h88.20000062v34.65000031h-129.15000031V411.19999969zM493.1 411.19999969h42.525l15.75000031 100.80000031 9.45 66.15h1.57499938c4.725-22.04999969 7.87499969-44.10000031 12.60000062-66.15l23.625-100.80000031h34.64999938l23.625 100.80000031c4.725 20.47500031 7.87499969 44.10000031 12.60000062 66.15h1.57499938l9.45-66.15 15.75000031-100.80000031h39.37500031l-37.8 206.32500062h-51.975L622.25000031 515.14999969l-9.45-47.25h-1.57500031l-9.45 47.25-22.04999969 102.37500062h-50.40000062l-36.22499969-206.32500062zM752.975 590.74999969l23.625-28.35c14.175 14.175 34.65000031 22.04999969 51.975 22.05000062 22.04999969 0 33.075-9.45 33.075-23.625 0-15.75000031-12.59999969-20.47500031-31.49999969-28.35l-26.77500062-11.02500031c-20.47500031-7.87499969-42.525-25.20000031-42.525-55.12499969 0-33.075 29.92500031-59.84999969 70.875-59.85000062 23.625 0 47.25 9.45 64.57500062 26.77500062l-20.47500031 25.19999938c-12.59999969-11.02500031-26.77499969-17.32499969-44.10000031-17.32499969-17.32499969 0-29.92500031 7.87499969-29.92499938 22.04999969 0 14.175 14.175 20.47500031 31.49999969 26.77500062l26.77499969 11.02499938c25.20000031 11.02500031 40.94999969 26.77499969 40.95000062 56.7 0 33.075-28.35 63.00000031-75.6 63.00000031-23.625 1.57500031-51.975-9.45-72.45000031-29.92500031z" fill="#d81e06" p-id="3842"></path></svg>