<?xml version="1.0" standalone="no"?><!DOCTYPE svg PUBLIC "-//W3C//DTD SVG 1.1//EN" "http://www.w3.org/Graphics/SVG/1.1/DTD/svg11.dtd"><svg t="1691003523502" class="icon" viewBox="0 0 1024 1024" version="1.1" xmlns="http://www.w3.org/2000/svg" p-id="3465" xmlns:xlink="http://www.w3.org/1999/xlink" width="200" height="200"><path d="M259.19237447 581.79159149c-4.96095319-17.19666383-20.22127659-29.51080852-38.27581277-29.51080851H117.85913191a39.82488511 39.82488511 0 0 0-30.95693617 14.77501277 40.50628085 40.50628085 0 0 0-8.96599148 25.52047659c0 2.80401702 0.27942127 5.60313191 0.82845957 8.28459575 18.13297021 89.76285958 62.86488511 170.73130212 129.34754042 233.9099234a39.56017021 39.56017021 0 0 0 27.32445958 10.99547234c2.09320851 0 4.13249362-0.16177021 6.06883405-0.50491915 12.72592341-1.87261277 23.50570212-9.97582978 29.32942978-21.14777872l51.0948766-89.19911489a40.14842553 40.14842553 0 0 0 5.32861276-20.17715744 40.12391489 40.12391489 0 0 0-10.37290212-27.04013619M606.91499575 787.12701277c-7.08357447-12.13766809-19.85361702-20.11833191-34.42274043-20.11833192h-0.1421617c-2.80891915 0-5.66195745 0.29412766-8.5051915 0.89218724-16.56428936 3.81875745-35.54042554 5.9904-55.04599148 5.9904-26.72149788 0-52.45766809-4.11778723-76.7232-11.73569362-1.59319148-0.5833532-5.59822979-1.21572766-9.7650383-1.21572767a39.88371064 39.88371064 0 0 0-34.56980425 20.12323406L336.76854468 870.1494468a40.04548085 40.04548085 0 0 0-5.33351489 20.12813618c0 4.9266383 0.9216 9.63268085 2.47067233 13.9661617 4.42662128 12.02491915 14.19656169 21.27523404 26.30481703 24.71162553 42.14849362 16.29467234 93.98359149 26.24599149 148.00994042 26.24599149h0.83336171a434.39714043 434.39714043 0 0 0 126.64156595-18.72612766 40.36902128 40.36902128 0 0 0 26.45188086-26.15775318c0.91669787-1.99026382 1.95594893-7.13259575 1.95594893-12.48571916a40.24646809 40.24646809 0 0 0-5.46587234-20.2948085l-51.76156595-90.43445108 0.03921702 0.02451065z" fill="#044cf4" p-id="3466"></path><path d="M758.91036596 442.11036596c4.94134468 17.23097872 20.20166809 29.6333617 38.29542127 29.63336171H900.24851064a40.01116596 40.01116596 0 0 0 30.93242553-14.7799149 40.34941277 40.34941277 0 0 0 9.01011063-25.51557446c0-2.84323404-0.29412766-5.60803404-0.82845957-8.28459576-19.61831489-97.82685957-72.53188085-187.25147234-148.99036596-251.48405107a39.2562383 39.2562383 0 0 0-25.48616169-9.26011915c-14.60834042 0-27.4519149 7.93654468-34.54529362 19.91734469l-51.13899575 89.3755915a40.09450212 40.09450212 0 0 0-5.35802553 20.16735317c0 11.62784681 4.87271489 22.1184 12.63278298 29.37845108M635.7248 87.51986383c-37.80030637-11.88765957-81.2233532-18.71632341-126.22978723-18.7163234h-0.50001702c-52.16844255 0-103.17508086 9.12285957-151.42672341 27.08915745a40.57981277 40.57981277 0 0 0-24.65770213 26.83914893c-0.57354893 1.34808511-1.4902468 6.06393191-1.4902468 10.98566809 0 7.43652766 1.9853617 14.35833191 5.45116595 20.33892766L387.77028086 242.97123404a39.85429788 39.85429788 0 0 0 34.5796085 20.12813617c3.83346383 0 7.77967659-0.55394043 11.61314043-1.74025532 22.39291915-7.13259575 48.14869788-11.25038298 74.83588085-11.25038298 19.50556596 0 38.50131064 2.20595744 56.77154043 6.36296172 1.10788085 0.25981277 3.97072341 0.5490383 6.77964255 0.54903828a39.85429788 39.85429788 0 0 0 34.58941276-20.12323403l51.86451063-90.60602554a40.54549788 40.54549788 0 0 0 2.52459576-34.98158298c-4.97565957-12.36316596-15.37307234-21.53014468-28.0205617-24.41749787l2.41674893 0.62747234zM906.08204255 552.2856851h-102.8466383c-17.96139574 0-33.70212767 12.09845107-38.49150637 29.58924256-16.46624681 58.85494468-19.34869788 91.61096169-65.27673192 125.11210213 16.79468936-13.07397447-19.71145532 13.52497022-19.71145532 25.15281701 0 7.43652766 1.97555744 14.40245106 5.43155745 20.38794894l50.96251914 88.99322553c7.04925957 12.14747234 19.78988936 20.16735319 34.30508936 20.1673532h0.29412766a39.42781277 39.42781277 0 0 0 25.53518298-9.34345532c76.42417022-64.23748085 129.33283404-153.66699575 148.99036597-251.74386383a39.17780425 39.17780425 0 0 0 0.7990468-7.98556596 40.43274893 40.43274893 0 0 0-9.06403404-25.6087149c-7.4071149-8.99050212-18.47611914-14.73579575-30.79026384-14.73579574h-0.02941276l-0.1078468 0.01470638z" fill="#d81e06" p-id="3467"></path><path d="M270.05058723 198.35206809c-7.06396596-12.14747234-19.80949788-20.1330383-34.32469787-20.1330383h-0.25000851c-10.59349787 0-20.17715745 4.17661277-27.3832851 11.00037447-66.44834042 63.0952851-111.18025532 144.11274893-129.33283405 234.15993191-2.34811915 11.85334468 0.59805958 24.20670638 8.22086809 33.55506383a39.66311489 39.66311489 0 0 0 30.89811064 14.77501277h102.89075745c17.89766809 0 33.65800852-12.06413617 38.45719148-29.55002554 15.09365106-53.45770212 22.83411064-84.12051064 62.37957447-117.19026382-20.16735319 18.59377021 5.73058723-5.25998299 5.73058723-15.7554383a40.40333617 40.40333617 0 0 0-5.43155744-20.33402554L270.05058723 198.35206809z" fill="#044cf4" p-id="3468"></path></svg>