<?xml version="1.0" standalone="no"?><!DOCTYPE svg PUBLIC "-//W3C//DTD SVG 1.1//EN" "http://www.w3.org/Graphics/SVG/1.1/DTD/svg11.dtd"><svg t="1691412433441" class="icon" viewBox="0 0 1024 1024" version="1.1" xmlns="http://www.w3.org/2000/svg" p-id="3525" xmlns:xlink="http://www.w3.org/1999/xlink" width="200" height="200"><path d="M736 488.774194h-5.16129c-15.483871 0-28.387097-11.354839-30.451613-26.322581-9.290323-53.16129-45.935484-97.548387-96.516129-117.16129-14.451613-5.16129-23.225806-20.129032-20.129033-35.096775l1.032259-5.16129c3.612903-16.516129 20.129032-27.354839 36.645161-23.741935l4.645161 1.548387c74.322581 27.870968 127.483871 93.419355 139.870968 171.870967 2.064516 16.516129-9.290323 32-26.322581 34.064517h-3.612903zM614.193548 157.935484l1.032258-5.16129c3.612903-16.516129 19.612903-27.354839 36.645162-24.258065 0.516129 0 1.548387 0.516129 2.064516 0.516129 148.129032 43.354839 254.451613 172.903226 268.387097 326.193548 1.548387 17.032258-11.354839 32-28.387097 33.032259h-7.741936c-15.483871 0-28.903226-11.870968-30.451613-27.354839-11.354839-126.451613-99.096774-233.290323-220.903225-268.903226-14.451613-3.612903-23.741935-18.580645-20.645162-34.064516z" fill="#d81e06" p-id="3526"></path><path d="M816 725.677419c-8.774194-16.516129-19.612903-32-32.516129-45.935484-69.677419-78.967742-131.096774-100.645161-199.225806-70.709677-7.741935 3.612903-13.419355 6.709677-19.096775 9.290323l-18.580645 10.838709c-5.677419-4.129032-10.83871-8.774194-16-13.935484-28.903226-29.419355-55.225806-61.419355-78.451613-96-21.677419-29.935484-40.774194-61.419355-57.290322-93.935483l-5.161291-11.354839-4.129032-8.774194-1.032258-3.612903-1.032258-2.580645 8.258064-5.16129c42.83871-26.322581 65.548387-55.225806 71.741936-91.354839 6.193548-35.096774-4.645161-74.83871-34.064516-128.516129-29.419355-53.677419-65.548387-83.096774-110.967742-90.83871-7.225806-1.032258-14.967742-2.064516-22.193548-1.548387-33.032258 0-61.419355 10.322581-108.387097 39.741936L175.483871 129.032258l-11.354839 6.709677c-30.967742 20.129032-51.612903 52.129032-57.290322 88.258065-10.322581 65.548387-3.096774 132.645161 20.129032 194.580645 27.354839 82.064516 67.096774 160 117.677419 230.709678 34.580645 49.548387 73.290323 95.483871 116.645162 137.290322 37.677419 37.16129 78.967742 70.193548 123.870967 98.580645 47.483871 33.032258 102.709677 52.645161 160 56.258065 21.16129 0.516129 41.806452-4.129032 60.903226-13.419355l35.096774-20.129032c46.967742-27.354839 69.677419-49.032258 83.096775-80 12.903226-33.032258 10.322581-71.225806-8.258065-102.193549zM196.129032 196.129032l5.161291-3.612903 32-20.129032 14.451612-8.258065c14.451613-9.290323 30.967742-14.967742 48-15.483871 3.612903 0 7.225806 0.516129 10.322581 1.032258 23.225806 3.612903 43.354839 22.193548 61.935484 56.258065 21.16129 38.709677 29.935484 67.096774 26.83871 86.709677-4.645161 18.580645-17.032258 33.548387-34.064516 41.806452l-12.387097 7.741935-16.516129 9.806452c-9.290323 5.677419-16 15.483871-18.064516 26.322581l-0.516129 4.645161-0.516129 5.677419c1.548387 23.225806 8.774194 45.419355 20.129032 65.548387 18.580645 35.612903 39.225806 70.193548 62.967742 103.225807 25.806452 37.677419 55.225806 73.290323 87.225806 105.806451 10.83871 10.83871 23.225806 20.645161 36.645161 28.387097 13.935484 8.774194 30.967742 10.83871 45.935484 5.161291l4.645162-2.064517 23.225806-13.935483 9.806452-5.67742 10.32258-5.16129 5.67742-2.580645 6.193548-2.064516c20.645161-6.193548 49.032258-5.16129 99.612903 50.064516l8.774194 9.806451 5.677419 6.709678 6.193549 8.258064c15.483871 17.032258 21.16129 40.774194 14.451613 62.967742-10.322581 19.096774-26.83871 34.580645-46.451613 43.354839l-37.161291 21.16129c-29.419355 17.548387-88.774194 3.096774-154.838709-38.193548-40.258065-25.806452-77.935484-55.741935-112-89.290323-40.258065-39.225806-76.387097-82.064516-108.387097-128-46.451613-65.032258-83.096774-136.774194-108.903226-212.645161-19.096774-51.612903-25.806452-106.83871-18.580645-161.032258 2.064516-16.516129 9.806452-30.967742 22.193548-42.322581z" fill="#044cf4" p-id="3527"></path></svg>